/* XPM */
static char *_5968_1ed4a535b099b6458c574e27d48da0b67c2c55f87cbd1555c44c4b50f961bb0b[] = {
/* columns rows colors chars-per-pixel */
"213 55 44 1 ",
"  c #000000",
". c #0B0101",
"X c #130202",
"o c #1C0202",
"O c #220303",
"+ c #2A0404",
"@ c #340505",
"# c #3B0606",
"$ c #420606",
"% c #4A0707",
"& c #4D0808",
"* c #520606",
"= c #580707",
"- c #550909",
"; c #5B0909",
": c #620707",
"> c #640A0A",
", c #6B0A0A",
"< c #730A0A",
"1 c #7E0B0B",
"2 c #830C0C",
"3 c #8C0D0D",
"4 c #940E0E",
"5 c #9C0D0D",
"6 c #9B1010",
"7 c #A50C0C",
"8 c #AC0D0D",
"9 c #B20D0D",
"0 c #B90E0E",
"q c #A21010",
"w c #AB1111",
"e c #B31212",
"r c #BC1313",
"t c #C40F0F",
"y c #CB0F0F",
"u c #C31313",
"i c #CB1313",
"p c #D21313",
"a c #DB1212",
"s c #E51212",
"d c #EB1313",
"f c #F41313",
"g c #FE1313",
"h c None",
/* pixels */
"hhhhhhhhhhhhhhhhhhhhhhhhhhhhhhhhhhhhhhhhhhhhhhhhhhhhhhhhhhhhhhhhhhhhhhhhhhhhhhhhhhhhhhhhhhhhhhhhhhhhhhhhhhhhhhhhhhhhhhhhhhhhhhhhhhhhhhhhhhhhhhhhhhhhhhhhhhhhhhhhhhhhhhhhhhhhhhhhhhhhhhhhhhhhhhhhhhhhhhhhhhhhhhhhhhhhh",
"hhhhhhhhhhhhhhhhhhhhhhhhhhhhhhhhhhhhhhhhhhhhhhhhhhhhhhhhhhhhhhhhhhhhhhhhhhhhhhhhhhhhhhhhhhhhhhhhhhhhhhhhhhhhhhhhhhhhhhhhhhhhhhhhhhhhhhhhhhhhhhhhhhhhhhhhhhhhhhhhhhhhhhhhhhhhhhhhhhhhhhhhhhhhhhhhhhhhhhhhhhhhhhhhhhhhh",
"hhhhhhhhhhhhhhhhhhhhhhhhhhhhhhhhhhhhhhhhhhhhhhhhhhhhhhhhhhhhhhhhhhhhhhhhhhhhhhhhhhhhhhhhhhhhhhhhhhhhhhhhhhhhhhhhhhhhhhhhhhhhhhhhhhhhhhhhhhhhhhhhhhhhhhhhhhhhhhhhhhhhhhhhhhhhhhhhhhhhhhhhhhhhhhhhhhhhhhhhhhhhhhhhhhhhh",
"hhhhhhhhhhhhhhhhhhhhhhhhhhhhhhhhhhhhhhhhhhhhhhhhhhhhhhhhhhhhhhhhhhhhhhhhhhhhhhhhhhhhhhhhhhhhhhhhhhhhhhhhhhhhhhhhhhhhhhhhhhhhhhhhhhhhhhhhhhhhhhhhhhhhhhhhhhhhhhhhhhhhhhhhhhhhhhhhhhhhhhhhhhhhhhhhhhhhhhhhhhhhhhhhhhhhh",
"hhhhhhhhhhhhhhhhhhhhhhhhhhhhhhhhhhhhhhhhhhhhhhhhhhhhhhhhhhhhhhhhhhhhhhhhhhhhhhhhhhhhhhhhhhhhhhhhhhhhhhhhhhhhhhhhhhhhhhhhhhhhhhhhhhhhhhhhhhhhhhhhhhhhhhhhhhhhhhhhhhhhhhhhhhhhhhhhhhhhhhhhhhhhhhhhhhhhhhhhhhhhhhhhhhhhh",
"hhhhhhhhhhhhhhhhhhhhhhhhhhhhhhhhhhhhhhhhhhhhhhhhhhhhhhhhhhhhhhhhhhhhhhhhhhhhhhhhhhhhhhhhhhhhhhhhhhhhhhhhhhhhhhhhhhhhhhhhhhhhhhhhhhhhhhhhhhhhhhhhhhhhhhhhhhhhhhhhhhhhhhhhhhhhhhhhhhhhhhhhhhhhhhhhhhhhhhhhhhhhhhhhhhhhh",
"hhhhhhhhhhhhhhhhhhhhhhhhhhhhhhhhhhhhhhhhhhhhhhhhhhhhhhhhhhhhhhhhhhhhhhhhhhhhhhhhhhhhhhhhhhhhhhhhhhhhhhhhhhhhhhhhhhhhhhhhhhhhhhhhhhhhhhhhhhhhhhhhhhhhhhhhhhhhhhhhhhhhhhhhhhhhhhhhhhhhhhhhhhhhhhhhhhhhhhhhhhhhhhhhhhhhh",
"hhhhhhhhhhhhhhhhhhhhhhhhhhhhhhhhhhhhhhhhhhhhhhhhhhhhhhhhhhhhhhhhhhhhhhhhhhhhhhhhhhhhhhhhhhhhhhhhhhhhhhhhhhhhhhhhhhhhhhhhhhhhhhhhhhhhhhhhhhhhhhhhhhhhhhhhhhhhhhhhhhhhhhhhhhhhhhhhhhhhhhhhhhhhhhhhhhhhhhhhhhhhhhhhhhhhh",
"hhhhhhhhhhhh          hhhh         hhhhhhhhhhhhhhhhhhh         hhhh         hhhhhhhhhhhhhhhhhhh         hhhhh         hhhhhhhhhhhhhhhhhh         hhhhh         hhhhhhhhhhhhhhhhhh         hhhhh         hhhhhhhhhhhhh",
"hhhhhhhhhhhh          hhhh         hhhhhhhhhhhhhhhhhhh         hhhh         hhhhhhhhhhhhhhhhhhh         hhhhh         hhhhhhhhhhhhhhhhhh         hhhhh         hhhhhhhhhhhhhhhhhh         hhhhh         hhhhhhhhhhhhh",
"hhhhhhhhhhhh          hhhh         hhhhhhhhhhhhhhhhhhh         hhhh         hhhhhhhhhhhhhhhhhhh         hhhhh         hhhhhhhhhhhhhhhhhh         hhhhh         hhhhhhhhhhhhhhhhhh         hhhhh         hhhhhhhhhhhhh",
"hhhhhhhhhhhh          hhhh         hhhhhhhhhhhhhhhhhhh         hhhh         hhhhhhhhhhhhhhhhhhh         hhhhh         hhhhhhhhhhhhhhhhhh         hhhhh         hhhhhhhhhhhhhhhhhh         hhhhh         hhhhhhhhhhhhh",
"hhhhhhhh    <55555557:   X355555555$   hhhhhhhhhh    *555555552    <55555555:    hhhhhhhhhh   @555555553o   =555555551    hhhhhhhhhh   X355555555@   #555555554X   hhhhhhhhhh    hhhhhhhhh     hhhhhhhhh    hhhhhhhhh",
"hhhhhhhh    5gggggggg2   Xygggggggg%    hhhhhhhhh    ,gggggggg0    7gggggggg2    hhhhhhhhh    #fgggggggso   <gggggggg9    hhhhhhhhh    Xagggggggg#   #ggggggggaX    hhhhhhhhh    hhhhhhhhh     hhhhhhhhh     hhhhhhhh",
"hhhhhhhh    7gggggggg2   .pgggggggg%    hhhhhhhhh    ,gggggggg0    7gggggggg1    hhhhhhhhh    #fgggggggao   <gggggggg9    hhhhhhhhh    oagggggggg#   $ggggggggaX    hhhhhhhhh    hhhhhhhhh     hhhhhhhhh     hhhhhhhh",
"hhhhhhhh    5gggggggg2   Xpgggggggg%    hhhhhhhhh    ,gggggggg0    7gggggggg1    hhhhhhhhh    #fgggggggso   <gggggggg9    hhhhhhhhh    Xagggggggf#   $fgggggggaX    hhhhhhhhh    hhhhhhhhh     hhhhhhhhh     hhhhhhhh",
"hhhhhhhhOOOOwgggggggg5oOO+agggggggg:OOOOhhhhhhhhhOOOo1ggggggggr+OOO9gggggggg4oOOOhhhhhhhhhOOOO*ggggggggs@OOo2gggggggg0OOOOhhhhhhhhhoOOO@sgggggggf;oOo;fggggggga#OOOOhhhhhhhhh    hhhhhhhhhh    hhhhhhhhh     hhhhhhhh",
"hhh    #sdssfggggggggfsssdgggggggggdssd0.       oidddfggggggggfddssfggggggggfssdaO       .8dssdgggggggggddsddgggggggggssss*        2dssdgggggggggdddddgggggggggdssd2         hhhhhhhhhhhhhhhhhhhhhhhhhhhhhhhh    hhhh",
"hhh    $fggggggggggggggggggggggggggggggy.       oaggggggggggggggggggggggggggggggd+        0ggggggggggggggggggggggggggggggg*        2ggggggggggggggggggggggggggggggg2         hhhhhhhhhhhhhhhhhhhhhhhhhhhhhhhh    hhhh",
"hhh    $gggggggggggggggggggggggggggggggy.       osggggggggggggggggggggggggggggggd+        0ggggggggggggggggggggggggggggggg*        3ggggggggggggggggggggggggggggggg2         hhhhhhhhhhhhhhhhhhhhhhhhhhhhhhhh    hhhh",
"hhh    #fggggggggggggggggggggggggggggggi.       oaggggggggggggggggggggggggggggggdO       .0ggggggggggggggggggggggggggggggg*        2ggggggggggggggggggggggggggggggg3         hhhhhhhhhhhhhhhhhhhhhhhhhhhhhhhh    hhhh",
"hhh    $gggggggggggggggggggggggggggggggi.       oaggggggggggggggggggggggggggggggd+        0ggggggggggggggggggggggggggggggg*        3ggggggggggggggggggggggggggggggg2         hhhhhhhhhhhhhhhhhhhhhhhhhhhhhhhh    hhhh",
"hhh    $fggggggggggggggggggggggggggggggi.       oaggggggggggggggggggggggggggggggd+        rggggggggggggggggggggggggggggggg*        2ggggggggggggggggggggggggggggggg2         hhhhhhhhhhhhhhhhhhhhhhhhhhhhhhhh    hhhh",
"hhh    $fggggggggggggggggggggggggggggggu.       osggggggggggggggggggggggggggggggd+        0ggggggggggggggggggggggggggggggg*        2ggggggggggggggggggggggggggggggg2         hhhhhhhhhhhhhhhhhhhhhhhhhhhhhhhh    hhhh",
"hhh    $gggggggggggggggggggggggggggggggi.       oaggggggggggggggggggggggggggggggd+        rggggggggggggggggggggggggggggggg*        3ggggggggggggggggggggggggggggggg2         hhhhhhhhhhhhhhhhhhhhhhhhhhhhhhhh    hhhh",
"hhh    #fgggggggggggggggggggggggggggfggi.       oaggggggggggggggggggggggggggggfgd+        0gggfggggggggggggggggggggggggffg*        2ggggggggggggggggggggggggggggggg2         hhhhhhhhhhhhhhhhhhhhhhhhhhhhhhhh    hhhh",
"hhh    @uuiusggggggggggggggggggggggauii6.       XeiuiaggggggggggggggggggggggsuiirO        4iuupggggggggggggggggggggggdiiii#        ,iiiiggggggggggggggggggggggfiuiy,         hhhhhhhhhhhhhhhhhhhhhhhhhhhhhhhh    hhhh",
"hhh    +errrsggggggggggggggggggggggirrr6.       Xqrrrpggggggggggggggggggggggarrrwo        3rrriggggggggggggggggggggggdrrre#        >rrrrfgggggggggggggggggggggfurrr:         hhhhhhhhhhhhhhhhhhhhhhhhhhhhhhhh    hhhh",
"hhh    @rrrrsggggggggggggggggggggggprrr6.       Xqrrraggggggggggggggggggggggarrrwo        3rrriggggggggggggggggggggggdrrrr#        >rrrufgggggggggggggggggggggfurru:         hhhhhhhhhhhhhhhhhhhhhhhhhhhhhhhh    hhhh",
"hhh    +rrrrdggggggggggggggggggggggirrr6.       Xwurrpggggggggggggggggggggggarrreo        3urriggggggggggggggggggggggdruru#        >urrufgggggggggggggggggggggfurru>         hhhhhhhhhhhhhhhhhhhhhhhhhhhhhhhh    hhhh",
"hhh    +2112udsddgggggggggggggfsddd6212,.       X<221wddddggggggggggggggddsde1221o        ,2226sddsfgggggggggggggddddi2221@        -2213adddfgggggggggggggfdddp3222&         hhhhhhhhhhhhhhhhhhhhhhhhhhhhhhhh    hhhh",
"hhhhhhhh    <rrrugggggggggggggd0rrr#    hhhhhhhhh    &rrrrdggggggggggggfurrr:    hhhhhhhhh    +errrsgggggggggggggirrr2    hhhhhhhhh    Xqrrrpgggggggggggggprrr6X    hhhhhhhhh    hhhhhhhhhhhhhhhhhhhhhhh     hhhhhhhh",
"hhhhhhhh    <rrrufggggggggggggdrrrr@    hhhhhhhhh    &rrrrfggggggggggggfurrr;    hhhhhhhhh    +errragggggggggggggirrr2    hhhhhhhhh    X6rrrpgggggggggggggprrrqX    hhhhhhhhh    hhhhhhhhhhhhhhhhhhhhhhh     hhhhhhhh",
"hhhhhhhh    <urrugggggggggggggdrrrr@    hhhhhhhhh    &rrrrfggggggggggggfrrrr;    hhhhhhhhh    +errrsgggggggggggggurrr2    hhhhhhhhh    Xqrrrpgggggggggggggprrr6X    hhhhhhhhh    hhhhhhhhhhhhhhhhhhhhhhh     hhhhhhhh",
"hhhhhhhh    <rrrufggggggggggggdrrrr@    hhhhhhhhh    &rrrrdggggggggggggfrrrr;    hhhhhhhhh    +rrrrsgggggggggggggurrr2    hhhhhhhhh    X6rrrpgggggggggggggprrrqX    hhhhhhhhh    hhhhhhhhhhhhhhhhhhhhhhh     hhhhhhhh",
"hhhhhhhhhhhh@##@-uiipdggggaipp6####Ohhhhhhhhhhhhhhhhh+####eppiaggggsipie&###@hhhhhhhhhhhhhhhhhh#@#@4ppppggggdiipi-#@##hhhhhhhhhhhhhhhhhh####<piipfgggfpppi<####hhhhhhhhhhhhhhhhhh     hhhhhhhhhhhhhh    hhhhhhhhhhhhh",
"hhhhhhhhhhhh    owrrragggfurrr1    hhhhhhhhhhhhhhhhhhh   .4rrriggggprrr6.   hhhhhhhhhhhhhhhhhhh    <rrrrggggarrreO    hhhhhhhhhhhhhhhhhh    &rrrrdgggdrrrr&    hhhhhhhhhhhhhhhhhh     hhhhhhhhhhhhhh    hhhhhhhhhhhhh",
"hhhhhhhhhhhh    owrrraggggurrr1    hhhhhhhhhhhhhhhhhhh    6rrriggggprrr6.   hhhhhhhhhhhhhhhhhhh    ,urrifgggarrreO    hhhhhhhhhhhhhhhhhh    &rrrrfgggfrrrr$    hhhhhhhhhhhhhhhhhh     hhhhhhhhhhhhhh    hhhhhhhhhhhhh",
"hhhhhhhhhhhh    owrrraggggurrr2    hhhhhhhhhhhhhhhhhhh    6rrriggggprru6X   hhhhhhhhhhhhhhhhhhh    <rrrufgggsrrrr+    hhhhhhhhhhhhhhhhhh    &rrrrfgggfrrrr&    hhhhhhhhhhhhhhhhhh     hhhhhhhhhhhhhh    hhhhhhhhhhhhh",
"hhhhhhhhhhhh    o3666rfffdw666,    hhhhhhhhhhhhhhhhhhh   .1644edfffr6662.   hhhhhhhhhhhhhhhhhhh    ;666qdffdi6664o    hhhhhhhhhhhhhhhhhh    #6666pfffp6666#    hhhhhhhhhhhhhhhhhh     hhhhhhhhhhhhhh    hhhhhhhhhhhhh",
"hhhhhhhhhhhhhhhhh....;urre+....hhhhhhhhhhhhhhhhhhhhhhhhhhh....@rrrr& ...hhhhhhhhhhhhhhhhhhhhhhhhhhh....owrru,....hhhhhhhhhhhhhhhhhhhhhhhhhhhh...X4rrr6....hhhhhhhhhhhhhhhhhhhhhhhhhhhh    hhhhh     hhhhhhhhhhhhhhhhh",
"hhhhhhhhhhhhhhhhh    -rrreo    hhhhhhhhhhhhhhhhhhhhhhhhhhh    @rrrr&    hhhhhhhhhhhhhhhhhhhhhhhhhhh    owrru,    hhhhhhhhhhhhhhhhhhhhhhhhhhhh    4rrr4    hhhhhhhhhhhhhhhhhhhhhhhhhhhh    hhhhh     hhhhhhhhhhhhhhhhh",
"hhhhhhhhhhhhhhhhh    ;rrreO    hhhhhhhhhhhhhhhhhhhhhhhhhhh    @rrrr#    hhhhhhhhhhhhhhhhhhhhhhhhhhh    owrrr,    hhhhhhhhhhhhhhhhhhhhhhhhhhhh    3rrr3.   hhhhhhhhhhhhhhhhhhhhhhhhhhhh    hhhhh     hhhhhhhhhhhhhhhhh",
"hhhhhhhhhhhhhhhhh    ;urreO    hhhhhhhhhhhhhhhhhhhhhhhhhhh    #rrrr&    hhhhhhhhhhhhhhhhhhhhhhhhhhh    Xwrru,    hhhhhhhhhhhhhhhhhhhhhhhhhhhh    6urr4    hhhhhhhhhhhhhhhhhhhhhhhhhhhh    hhhhh     hhhhhhhhhhhhhhhhh",
"hhhhhhhhhhhhhhhhhhhhh#----ohhhhhhhhhhhhhhhhhhhhhhhhhhhhhhhhhhh+----@hhhhhhhhhhhhhhhhhhhhhhhhhhhhhhhhhhho----$hhhhhhhhhhhhhhhhhhhhhhhhhhhhhhhhhhhh&--;&hhhhhhhhhhhhhhhhhhhhhhhhhhhhhhhhhhhh     hhhhhhhhhhhhhhhhhhhhhh",
"hhhhhhhhhhhhhhhhhhhhhh    hhhhhhhhhhhhhhhhhhhhhhhhhhhhhhhhhhhhh    hhhhhhhhhhhhhhhhhhhhhhhhhhhhhhhhhhhhh     hhhhhhhhhhhhhhhhhhhhhhhhhhhhhhhhhhhh     hhhhhhhhhhhhhhhhhhhhhhhhhhhhhhhhhhhh     hhhhhhhhhhhhhhhhhhhhhh",
"hhhhhhhhhhhhhhhhhhhhhh    hhhhhhhhhhhhhhhhhhhhhhhhhhhhhhhhhhhhh    hhhhhhhhhhhhhhhhhhhhhhhhhhhhhhhhhhhhh     hhhhhhhhhhhhhhhhhhhhhhhhhhhhhhhhhhhh     hhhhhhhhhhhhhhhhhhhhhhhhhhhhhhhhhhhh     hhhhhhhhhhhhhhhhhhhhhh",
"hhhhhhhhhhhhhhhhhhhhhh    hhhhhhhhhhhhhhhhhhhhhhhhhhhhhhhhhhhhh    hhhhhhhhhhhhhhhhhhhhhhhhhhhhhhhhhhhhh     hhhhhhhhhhhhhhhhhhhhhhhhhhhhhhhhhhhh     hhhhhhhhhhhhhhhhhhhhhhhhhhhhhhhhhhhh     hhhhhhhhhhhhhhhhhhhhhh",
"hhhhhhhhhhhhhhhhhhhhhh    hhhhhhhhhhhhhhhhhhhhhhhhhhhhhhhhhhhhh    hhhhhhhhhhhhhhhhhhhhhhhhhhhhhhhhhhhhh     hhhhhhhhhhhhhhhhhhhhhhhhhhhhhhhhhhhh     hhhhhhhhhhhhhhhhhhhhhhhhhhhhhhhhhhhh     hhhhhhhhhhhhhhhhhhhhhh",
"hhhhhhhhhhhhhhhhhhhhhhhhhhhhhhhhhhhhhhhhhhhhhhhhhhhhhhhhhhhhhhhhhhhhhhhhhhhhhhhhhhhhhhhhhhhhhhhhhhhhhhhhhhhhhhhhhhhhhhhhhhhhhhhhhhhhhhhhhhhhhhhhhhhhhhhhhhhhhhhhhhhhhhhhhhhhhhhhhhhhhhhhhhhhhhhhhhhhhhhhhhhhhhhhhhhhh",
"hhhhhhhhhhhhhhhhhhhhhhhhhhhhhhhhhhhhhhhhhhhhhhhhhhhhhhhhhhhhhhhhhhhhhhhhhhhhhhhhhhhhhhhhhhhhhhhhhhhhhhhhhhhhhhhhhhhhhhhhhhhhhhhhhhhhhhhhhhhhhhhhhhhhhhhhhhhhhhhhhhhhhhhhhhhhhhhhhhhhhhhhhhhhhhhhhhhhhhhhhhhhhhhhhhhhh",
"hhhhhhhhhhhhhhhhhhhhhhhhhhhhhhhhhhhhhhhhhhhhhhhhhhhhhhhhhhhhhhhhhhhhhhhhhhhhhhhhhhhhhhhhhhhhhhhhhhhhhhhhhhhhhhhhhhhhhhhhhhhhhhhhhhhhhhhhhhhhhhhhhhhhhhhhhhhhhhhhhhhhhhhhhhhhhhhhhhhhhhhhhhhhhhhhhhhhhhhhhhhhhhhhhhhhh",
"hhhhhhhhhhhhhhhhhhhhhhhhhhhhhhhhhhhhhhhhhhhhhhhhhhhhhhhhhhhhhhhhhhhhhhhhhhhhhhhhhhhhhhhhhhhhhhhhhhhhhhhhhhhhhhhhhhhhhhhhhhhhhhhhhhhhhhhhhhhhhhhhhhhhhhhhhhhhhhhhhhhhhhhhhhhhhhhhhhhhhhhhhhhhhhhhhhhhhhhhhhhhhhhhhhhhh",
"hhhhhhhhhhhhhhhhhhhhhhhhhhhhhhhhhhhhhhhhhhhhhhhhhhhhhhhhhhhhhhhhhhhhhhhhhhhhhhhhhhhhhhhhhhhhhhhhhhhhhhhhhhhhhhhhhhhhhhhhhhhhhhhhhhhhhhhhhhhhhhhhhhhhhhhhhhhhhhhhhhhhhhhhhhhhhhhhhhhhhhhhhhhhhhhhhhhhhhhhhhhhhhhhhhhhh",
"hhhhhhhhhhhhhhhhhhhhhhhhhhhhhhhhhhhhhhhhhhhhhhhhhhhhhhhhhhhhhhhhhhhhhhhhhhhhhhhhhhhhhhhhhhhhhhhhhhhhhhhhhhhhhhhhhhhhhhhhhhhhhhhhhhhhhhhhhhhhhhhhhhhhhhhhhhhhhhhhhhhhhhhhhhhhhhhhhhhhhhhhhhhhhhhhhhhhhhhhhhhhhhhhhhhhh"
};
