/* XPM */
static char *_232_a0ca50b7985d238aa5ad2a6f157b97ce8f557f59f9bf9c1b416689ac4d3fe821[] = {
/* columns rows colors chars-per-pixel */
"215 55 43 1 ",
"  c #000000",
". c #0B0101",
"X c #130202",
"o c #1B0303",
"O c #240303",
"+ c #2A0303",
"@ c #330505",
"# c #3B0505",
"$ c #420606",
"% c #4C0606",
"& c #4E0808",
"* c #530606",
"= c #5A0707",
"- c #520808",
"; c #5C0909",
": c #630A0A",
"> c #6C0A0A",
", c #730909",
"< c #7D0A0A",
"1 c #830A0A",
"2 c #8C0D0D",
"3 c #930E0E",
"4 c #9B0D0D",
"5 c #9C1010",
"6 c #A30D0D",
"7 c #A90D0D",
"8 c #B40E0E",
"9 c #B90E0E",
"0 c #A51111",
"q c #AB1111",
"w c #B51212",
"e c #BC1313",
"r c #C40F0F",
"t c #C90F0F",
"y c #C21313",
"u c #CD1313",
"i c #D41212",
"p c #DA1212",
"a c #E51313",
"s c #EC1212",
"d c #F31313",
"f c #FE1313",
"g c None",
/* pixels */
"ggggggggggggggggggggggggggggggggggggggggggggggggggggggggggggggggggggggggggggggggggggggggggggggggggggggggggggggggggggggggggggggggggggggggggggggggggggggggggggggggggggggggggggggggggggggggggggggggggggggggggggggggggggggg",
"ggggggggggggggggggggggggggggggggggggggggggggggggggggggggggggggggggggggggggggggggggggggggggggggggggggggggggggggggggggggggggggggggggggggggggggggggggggggggggggggggggggggggggggggggggggggggggggggggggggggggggggggggggggggg",
"ggggggggggggggggggggggggggggggggggggggggggggggggggggggggggggggggggggggggggggggggggggggggggggggggggggggggggggggggggggggggggggggggggggggggggggggggggggggggggggggggggggggggggggggggggggggggggggggggggggggggggggggggggggggg",
"ggggggggggggggggggggggggggggggggggggggggggggggggggggggggggggggggggggggggggggggggggggggggggggggggggggggggggggggggggggggggggggggggggggggggggggggggggggggggggggggggggggggggggggggggggggggggggggggggggggggggggggggggggggggg",
"ggggggggggggggggggggggggggggggggggggggggggggggggggggggggggggggggggggggggggggggggggggggggggggggggggggggggggggggggggggggggggggggggggggggggggggggggggggggggggggggggggggggggggggggggggggggggggggggggggggggggggggggggggggggg",
"ggggggggggggggggggggggggggggggggggggggggggggggggggggggggggggggggggggggggggggggggggggggggggggggggggggggggggggggggggggggggggggggggggggggggggggggggggggggggggggggggggggggggggggggggggggggggggggggggggggggggggggggggggggggg",
"ggggggggggggggggggggggggggggggggggggggggggggggggggggggggggggggggggggggggggggggggggggggggggggggggggggggggggggggggggggggggggggggggggggggggggggggggggggggggggggggggggggggggggggggggggggggggggggggggggggggggggggggggggggggg",
"ggggggggggggg        gggggg        ggggggggggggggggggg         ggggg         ggggggggggggggggggg         ggggg         ggggggggggggggggggg        gggggg        ggggggggggggggggggg         ggggg         ggggggggggggg",
"gggggggggggg          gggg          gggggggggggggggggg         ggggg         ggggggggggggggggggg         ggggg         gggggggggggggggggg          gggg         ggggggggggggggggggg         ggggg         ggggggggggggg",
"gggggggggggg          gggg          gggggggggggggggggg         ggggg         ggggggggggggggggggg         ggggg         gggggggggggggggggg          gggg         ggggggggggggggggggg         ggggg         ggggggggggggg",
"gggggggggggg          gggg          gggggggggggggggggg         ggggg         ggggggggggggggggggg         ggggg         gggggggggggggggggg          gggg         ggggggggggggggggggg         ggggg         ggggggggggggg",
"ggggggggggggO++++++++OggggO++++++++Ogggggggggggggggggg+++++++++ggggg+++++++++ggggggggggggggggggg+++++++++ggggO++++++++OggggggggggggggggggO++++++++OggggO++++++++Ogggggggggggggggggg+++++++++ggggg+++++++++ggggggggggggg",
"gggggggg    <dssssssd7    4dssssssd2    gggggggggg   Xtssssssss=   Opssssssss#    ggggggggg    %ssssssssto   >ssssssss9.   gggggggggg    4dssasssd2   .8sssssssd>    ggggggggg    Opsssasssa#   #assssssspO    gggggggg",
"gggggggg    1ffffffff8    6ffffffff4    ggggggggg    .iffffffff=   oafffffffd$    ggggggggg    %ffffffffpX   >fffffffft.   gggggggggg    qffffffff3   .tffffffff,    ggggggggg    Osfffffffd#   #ffffffffaO    gggggggg",
"gggggggg    1ffffffff8    4ffffffff4    ggggggggg    Xiffffffff=   Oaffffffff$    ggggggggg    %ffffffffpo   >ffffffffr.   gggggggggg    7ffffffff2   .9ffffffff,    ggggggggg    +sfffffffd#   #ffffffffsO    gggggggg",
"gggggggg    1ffffffff8    6ffffffff3    ggggggggg    .tffffffff=   oafffffffd#    ggggggggg    %ffffffffpX   >ffffffffr.   gggggggggg    7ffffffff2    rffffffff>    ggggggggg    Oaffffffff@   @dfffffffaO    gggggggg",
"gggg  g+<<1<effffffffp<1<<tffffffffu<<1<@g      g;<<<2affffffff0<<<3dffffffff4<1<,.g     gX,1<<7ffffffffs2<<<wffffffffa1<<1%g      g#2<<<iffffffffy<2<<affffffff9<1<<Og       ><1<3dfffffffd4<<<4ffffffffd3<<1:g  ggggg",
"ggg    @dfffffffffffffffffffffffffffffff$        2ffffffffffffffffffffffffffffffft.       .pfffffffffffffffffffffffffffffff,        &fffffffffffffffffffffffffffffffsO        7fffffffffffffffffffffffffffffff7    gggg",
"ggg    @dffffffffffffffffffffffffffffffd$        2ffffffffffffffffffffffffffffffft.       Xifffffffffffffffffffffffffffffff,        &fffffffffffffffffffffffffffffffsO        7fffffffffffffffffffffffffffffff7    gggg",
"ggg    @dfffffffffffffffffffffffffffffff$        1ffffffffffffffffffffffffffffffft.       Xifffffffffffffffffffffffffffffff,        -fffffffffffffffffffffffffffffffsO        7fffffffffffffffffffffffffffffff7    gggg",
"ggg    @dffffffffffffffffffffffffffffffd$        1ffffffffffffffffffffffffffffffft.       Xpfffffffffffffffffffffffffffffff,        -fffffffffffffffffffffffffffffffsO        7fffffffffffffffffffffffffffffff7    gggg",
"ggg    @dfffffffffffffffffffffffffffffff$        2ffffffffffffffffffffffffffffffft.       Xtfffffffffffffffffffffffffffffff,        -fffffffffffffffffffffffffffffffsO        7fffffffffffffffffffffffffffffff7    gggg",
"ggg    @dffffffffffffffffffffffffffffffd$        1ffffffffffffffffffffffffffffffft.       Xifffffffffffffffffffffffffffffff,        -fffffffffffffffffffffffffffffffsO        7fffffffffffffffffffffffffffffff7    gggg",
"ggg    @dfffffffffffffffffffffffffffffff$        2ffffffffffffffffffffffffffffffft.       Xifffffffffffffffffffffffffffffff,        -fffffffffffffffffffffffffffffffsO        qfffffffffffffffffffffffffffffff7    gggg",
"ggg    @dfffffffffffffffffffffffffffffff$        2fffffffffffffffffffffffffffffffu.       Xifffffffffffffffffffffffffffffff,        -fffffffffffffffffffffffffffffffsO        qfffffffffffffffffffffffffffffff0    gggg",
"ggg    +paaadffffffffffffffffffffffdaaap#        ,saaafffffffffffffffffffffffaaas8.       .raaasfffffffffffffffffffffffaass>        &aaaafffffffffffffffffffffffdaasiO        5aaasfffffffffffffffffffffffaaas5    gggg",
"ggg    Oweeepffffffffffffffffffffffaeeee@        :eeeydffffffffffffffffffffffueee3.       .5eeeuffffffffffffdfffffffffdeeee-        #eeeeaffffffffffffffffffffffpweeqo        2eeeyffffffffffffffffffffffdyeey<    gggg",
"ggg    Oqeeeaffffffffffffffffffffffpeeee@        :eeeedffffffffffffffffffffffuwee3.       .0eeeiffffffffffffffffffffffseeee-        #eeeeaffffffffffffffffffffffpeeeqo        <eeeydffffffffffffffffffffffyeee<    gggg",
"ggg    Oqeeepffffffffffffffffffffffaeeee@        :eeeydffffffffffffffffffffffueee3.       .5eeeuffffffffffffffffffffffseeee;        @eeeeaffffffffffffffffffffffpeeeqo        <eeeyfffffffffffffffffffffffyeee<    gggg",
"ggg    Oweewpffffffffffffffffffffffaweww@        :eewedffffffffffffffffffffffywee3.       .5eewuffffffffffffffffffffffdeeee-        #eeeeaffffffffffffffffffffffiweeqo        <eewydfffffffffffffffffffffdywee<    gggg",
"gggggggg@@@@1iuuidffffffffffffdiuuu3@@@@ggggggggg+@@@#wuuupfffffffffffffauuuu;@@@@ggggggggg@@@@:uuuusfffffffffffffiuuuq#@@@OggggggggO@@@@5uuuufffffffffffffduuuu<@@@@ggggggggg@@@@%yuuuafffffffffffffauuuy&@@@+gggggggg",
"gggggggg    ;eeeedffffffffffffdyeee>    ggggggggg    .5eeeufffffffffffffa8eew+    ggggggggg    #weweafffffffffffffueee3    gggggggggg    <eeeydffffffffffffseeee&    ggggggggg    oqeeeifffffffffffffpwweqX    gggggggg",
"gggggggg    :eeeydffffffffffffdyeey>    ggggggggg    .5eeeufffffffffffffpeeew@    ggggggggg    #eeeeafffffffffffffueee5.   gggggggggg    <eeeyfffffffffffffseeee-    ggggggggg    oqeeeifffffffffffffpeeeqo    gggggggg",
"gggggggg    ;yyeydfffffffffffffyeey>    ggggggggg    .5eeeufffffffffffffaeeee@    ggggggggg    #eeeeafffffffffffffueee3    gggggggggg    <yeeyfffffffffffffdyeee;    ggggggggg    oqyeeifffffffffffffpeeyqo    gggggggg",
"gggggggg    -3335pdsddffffddsda5335;    gggggggggg   .<553wsddsfffffddsdy5533+    ggggggggg    #3232uddsdfffffadds0353,.   gggggggggg    >5530asssdffffddsdu5333&    ggggggggg    o3535eddddfffffssdde2332X    gggggggg",
"gggggggggggg. ..X5eeeuffffieee0o ...gggggggggggggggggg.. .#eeeeaffffyeey> . .ggggggggggggggggggg....<yeeydfffaeeee@  ..gggggggggggggggggg . .oweeepffffueey3....ggggggggggggggggggg..  ;eeeesfffsyeee; ...ggggggggggggg",
"gggggggggggg    .5eewuffffueee0X    gggggggggggggggggg    #eeeeafffdyeey>    ggggggggggggggggggg    <eeeyffffpeeee+    gggggggggggggggggg    oqeeepffffyeee3.   ggggggggggggggggggg    -eeeedfffseeee-    ggggggggggggg",
"gggggggggggg    .5eeeuffffueee0X    gggggggggggggggggg    #eeeeafffdyeee>    ggggggggggggggggggg    <eeeydfffaeeew@    gggggggggggggggggg    oqeeepffffueee3    ggggggggggggggggggg    -eeeesfffdeeee-    ggggggggggggg",
"gggggggggggg    .5eeeuffffieey0X    gggggggggggggggggg    #eeeeaffffyeey>    ggggggggggggggggggg    <yeeyffffaeeee@    gggggggggggggggggg    oweeeuffffueee3.   ggggggggggggggggggg    ;eeeydfffseeey-    ggggggggggggg",
"ggggggggggggggggg&-&&<pppi2&-&&ggggggggggggggggggggggggggg+&&&&0piiy;&--#ggggggggggggggggggggggggggg#-&&:uppp5&&&&oggggggggggggggggggggggggggo&&&&3pppu>&&-&ggggggggggggggggggggggggggg@&&&;epppe--&-@ggggggggggggggggg",
"ggggggggggggggggg    @weee$    gggggggggggggggggggggggggggg    >eee5.    ggggggggggggggggggggggggggg    o0eee>    gggggggggggggggggggggggggggg    -eeew+    gggggggggggggggggggggggggggg    3eee2    gggggggggggggggggg",
"ggggggggggggggggg    @eeee$    gggggggggggggggggggggggggggg    <eee0X    ggggggggggggggggggggggggggg    o0eey>    gggggggggggggggggggggggggggg    ;eeew+    gggggggggggggggggggggggggggg   .3eee2.   gggggggggggggggggg",
"ggggggggggggggggg    #eeee$    gggggggggggggggggggggggggggg    <yee0X    ggggggggggggggggggggggggggg    oqeee>    gggggggggggggggggggggggggggg    &eeew+    gggggggggggggggggggggggggggg    3eee3.   gggggggggggggggggg",
"ggggggggggggggggg    @000q$    gggggggggggggggggggggggggggg    >q0q5X    ggggggggggggggggggggggggggg    o500q:    gggggggggggggggggggggggggggg    &q000@    gggggggggggggggggggggggggggg   .<0qq1    gggggggggggggggggg",
"ggggggggggggggggggggggXXoogggggggggggggggggggggggggggggggggggggoXoXogggggggggggggggggggggggggggggggggggggooXXXgggggggggggggggggggggggggggggggggggggoXoogggggggggggggggggggggggggggggggggggggooooXgggggggggggggggggggggg",
"gggggggggggggggggggggg    ggggggggggggggggggggggggggggggggggggg     ggggggggggggggggggggggggggggggggggggg     ggggggggggggggggggggggggggggggggggggg    ggggggggggggggggggggggggggggggggggggg     gggggggggggggggggggggg",
"gggggggggggggggggggggg    ggggggggggggggggggggggggggggggggggggg     ggggggggggggggggggggggggggggggggggggg     ggggggggggggggggggggggggggggggggggggg    ggggggggggggggggggggggggggggggggggggg     gggggggggggggggggggggg",
"gggggggggggggggggggggg    ggggggggggggggggggggggggggggggggggggg     ggggggggggggggggggggggggggggggggggggg     ggggggggggggggggggggggggggggggggggggg    ggggggggggggggggggggggggggggggggggggg     gggggggggggggggggggggg",
"gggggggggggggggggggggg    gggggggggggggggggggggggggggggggggggggg    ggggggggggggggggggggggggggggggggggggg    gggggggggggggggggggggggggggggggggggggg    gggggggggggggggggggggggggggggggggggggg   ggggggggggggggggggggggg",
"ggggggggggggggggggggggggggggggggggggggggggggggggggggggggggggggggggggggggggggggggggggggggggggggggggggggggggggggggggggggggggggggggggggggggggggggggggggggggggggggggggggggggggggggggggggggggggggggggggggggggggggggggggggggg",
"ggggggggggggggggggggggggggggggggggggggggggggggggggggggggggggggggggggggggggggggggggggggggggggggggggggggggggggggggggggggggggggggggggggggggggggggggggggggggggggggggggggggggggggggggggggggggggggggggggggggggggggggggggggggg",
"ggggggggggggggggggggggggggggggggggggggggggggggggggggggggggggggggggggggggggggggggggggggggggggggggggggggggggggggggggggggggggggggggggggggggggggggggggggggggggggggggggggggggggggggggggggggggggggggggggggggggggggggggggggggg",
"ggggggggggggggggggggggggggggggggggggggggggggggggggggggggggggggggggggggggggggggggggggggggggggggggggggggggggggggggggggggggggggggggggggggggggggggggggggggggggggggggggggggggggggggggggggggggggggggggggggggggggggggggggggggg",
"ggggggggggggggggggggggggggggggggggggggggggggggggggggggggggggggggggggggggggggggggggggggggggggggggggggggggggggggggggggggggggggggggggggggggggggggggggggggggggggggggggggggggggggggggggggggggggggggggggggggggggggggggggggggg",
"ggggggggggggggggggggggggggggggggggggggggggggggggggggggggggggggggggggggggggggggggggggggggggggggggggggggggggggggggggggggggggggggggggggggggggggggggggggggggggggggggggggggggggggggggggggggggggggggggggggggggggggggggggggggg"
};
