/* XPM */
static char *_1630_8116ab875cf05540a0bf9a68bfdf939fe28afeff09a38dd780514c3a4dee8637[] = {
/* columns rows colors chars-per-pixel */
"215 55 43 1 ",
"  c #000000",
". c #0B0101",
"X c #130202",
"o c #1A0303",
"O c #240303",
"+ c #2A0303",
"@ c #330505",
"# c #3B0606",
"$ c #420606",
"% c #4D0606",
"& c #4E0808",
"* c #570707",
"= c #5A0707",
"- c #530909",
"; c #5D0A0A",
": c #620A0A",
"> c #6C0A0A",
", c #740A0A",
"< c #7D0A0A",
"1 c #830A0A",
"2 c #8D0B0B",
"3 c #930F0F",
"4 c #9C0D0D",
"5 c #9C1010",
"6 c #A40D0D",
"7 c #AB0D0D",
"8 c #B40E0E",
"9 c #BB0E0E",
"0 c #A51111",
"q c #AA1111",
"w c #B51212",
"e c #BC1313",
"r c #C50F0F",
"t c #C90F0F",
"y c #C21313",
"u c #CD1313",
"i c #D31212",
"p c #DB1212",
"a c #E51313",
"s c #ED1212",
"d c #F31313",
"f c #FE1313",
"g c None",
/* pixels */
"ggggggggggggggggggggggggggggggggggggggggggggggggggggggggggggggggggggggggggggggggggggggggggggggggggggggggggggggggggggggggggggggggggggggggggggggggggggggggggggggggggggggggggggggggggggggggggggggggggggggggggggggggggggggg",
"ggggggggggggggggggggggggggggggggggggggggggggggggggggggggggggggggggggggggggggggggggggggggggggggggggggggggggggggggggggggggggggggggggggggggggggggggggggggggggggggggggggggggggggggggggggggggggggggggggggggggggggggggggggggg",
"ggggggggggggggggggggggggggggggggggggggggggggggggggggggggggggggggggggggggggggggggggggggggggggggggggggggggggggggggggggggggggggggggggggggggggggggggggggggggggggggggggggggggggggggggggggggggggggggggggggggggggggggggggggggg",
"ggggggggggggggggggggggggggggggggggggggggggggggggggggggggggggggggggggggggggggggggggggggggggggggggggggggggggggggggggggggggggggggggggggggggggggggggggggggggggggggggggggggggggggggggggggggggggggggggggggggggggggggggggggggg",
"ggggggggggggggggggggggggggggggggggggggggggggggggggggggggggggggggggggggggggggggggggggggggggggggggggggggggggggggggggggggggggggggggggggggggggggggggggggggggggggggggggggggggggggggggggggggggggggggggggggggggggggggggggggggg",
"ggggggggggggggggggggggggggggggggggggggggggggggggggggggggggggggggggggggggggggggggggggggggggggggggggggggggggggggggggggggggggggggggggggggggggggggggggggggggggggggggggggggggggggggggggggggggggggggggggggggggggggggggggggggg",
"ggggggggggggggggggggggggggggggggggggggggggggggggggggggggggggggggggggggggggggggggggggggggggggggggggggggggggggggggggggggggggggggggggggggggggggggggggggggggggggggggggggggggggggggggggggggggggggggggggggggggggggggggggggggg",
"ggggggggggggg        gggggg        ggggggggggggggggggg         ggggg         ggggggggggggggggggg         ggggg         ggggggggggggggggggg        gggggg        ggggggggggggggggggg         ggggg         ggggggggggggg",
"gggggggggggg          gggg          gggggggggggggggggg         ggggg         ggggggggggggggggggg         ggggg         gggggggggggggggggg          gggg         ggggggggggggggggggg         ggggg         ggggggggggggg",
"gggggggggggg          gggg          gggggggggggggggggg         ggggg         ggggggggggggggggggg         ggggg         gggggggggggggggggg          gggg         ggggggggggggggggggg         ggggg         ggggggggggggg",
"gggggggggggg          gggg          gggggggggggggggggg         ggggg         ggggggggggggggggggg         ggggg         gggggggggggggggggg          gggg         ggggggggggggggggggg         ggggg         ggggggggggggg",
"ggggggggggggO++++++++OggggO++++++++Ogggggggggggggggggg+++++++++ggggg+++++++++ggggggggggggggggggg+++++++++ggggO++++++++Ogggggggggggggggggg          gggg         ggggggggggggggggggg         ggggg         ggggggggggggg",
"gggggggg    <dssssssd7    4dssssssd3    gggggggggg   Xtssssssss=   Opssssssss#    ggggggggg    %ssssssssto   >ssssssss9.   gggggggggg    gggggggggg    ggggggggg     ggggggggg     ggggggggg     ggggggggg     gggggggg",
"gggggggg    1ffffffff8    4ffffffff3    ggggggggg    .iffffffff=   oafffffffd$    ggggggggg    %ffffffffpX   >fffffffft.   gggggggggg    gggggggggg    ggggggggg     ggggggggg     ggggggggg     ggggggggg     gggggggg",
"gggggggg    1ffffffff8    6ffffffff4    ggggggggg    Xiffffffff=   Oaffffffff$    ggggggggg    %ffffffffpo   >ffffffffr.   gggggggggg    gggggggggg    ggggggggg     ggggggggg     ggggggggg     ggggggggg     gggggggg",
"gggggggg    1ffffffff8    4ffffffff3    ggggggggg    .iffffffff=   oafffffffd#    ggggggggg    %ffffffffpX   >ffffffffr.   gggggggggg    gggggggggg    ggggggggg     ggggggggg     ggggggggg     ggggggggg     gggggggg",
"gggg  g+<<1<effffffffp<<1<tffffffffy1<1<@g      g-<<<3affffffff0<1<3dffffffff4<<1,.g     gX,1<<7ffffffffs2<<<wffffffffa1<<1%g            gggggggggg   ggggggggggg              g  ggggggggggg   ggggggggggg   g   ggggg",
"ggg    @dfffffffffffffffffffffffffffffff$        3ffffffffffffffffffffffffffffffft.       .pfffffffffffffffffffffffffffffff,         gggggggggggggggggggggggggggggggg         ggggggggggggggggggggggggggggggggg    gggg",
"ggg    @dfffffffffffffffffffffffffffffff$        1ffffffffffffffffffffffffffffffft.       Xifffffffffffffffffffffffffffffff,         gggggggggggggggggggggggggggggggg         ggggggggggggggggggggggggggggggggg    gggg",
"ggg    @dffffffffffffffffffffffffffffffd$        1ffffffffffffffffffffffffffffffft.       Xifffffffffffffffffffffffffffffff,         gggggggggggggggggggggggggggggggg         ggggggggggggggggggggggggggggggggg    gggg",
"ggg    @dfffffffffffffffffffffffffffffff$        1ffffffffffffffffffffffffffffffft.       Xifffffffffffffffffffffffffffffff,         gggggggggggggggggggggggggggggggg         ggggggggggggggggggggggggggggggggg    gggg",
"ggg    @dffffffffffffffffffffffffffffffd$        1ffffffffffffffffffffffffffffffft.       Xifffffffffffffffffffffffffffffff,         gggggggggggggggggggggggggggggggg         ggggggggggggggggggggggggggggggggg    gggg",
"ggg    @dfffffffffffffffffffffffffffffff$        1ffffffffffffffffffffffffffffffft.       Xifffffffffffffffffffffffffffffff,         gggggggggggggggggggggggggggggggg         ggggggggggggggggggggggggggggggggg    gggg",
"ggg    @dffffffffffffffffffffffffffffffd$        1ffffffffffffffffffffffffffffffft.       Xifffffffffffffffffffffffffffffff,         gggggggggggggggggggggggggggggggg         ggggggggggggggggggggggggggggggggg    gggg",
"ggg    @dfffffffffffffffffffffffffffffff$        3fffffffffffffffffffffffffffffffu.       Xifffffffffffffffffffffffffffffff,         gggggggggggggggggggggggggggggggg         ggggggggggggggggggggggggggggggggg    gggg",
"ggg    +paaadffffffffffffffffffffffdaaaa#        ,saaadffffffffffffffffffffffaaas8.       Xyaaasfffffffffffffffdfffffffaass>         gggggggggggggggggggggggggggggggg         ggggggggggggggggggggggggggggggggg    gggg",
"ggg    Oweeepffffffffffffffffffffffpeeew@        :eeeedffffffffffffffffffffffueee3.       .4eeeiffffffffffffffffffffffseeee-         gggggggggggggggggggggggggggggggg         ggggggggggggggggggggggggggggggggg    gggg",
"ggg    Oqeeeaffffffffffffffffffffffaeeee@        :yeeydffffffffffffffffffffffueee3.       .5eeeuffffffffffffffffffffffdeeee-         gggggggggggggggggggggggggggggggg         ggggggggggggggggggggggggggggggggg    gggg",
"ggg    Oqeeepffffffffffffffffffffffaeeee@        :eeeedffffffffffffffffffffffueee3.       .0eeeiffffffffffffffffffffffseeee=         gggggggggggggggggggggggggggggggg         ggggggggggggggggggggggggggggggggg    gggg",
"ggg    Oweewpffffffffffffffffffffffawwew@        :eeeedffffffffffffffffffffffywee3.       .5eewiffffffffffffffffffffffseeee-         gggggggggggggggggggggggggggggggg         ggggggggggggggggggggggggggggggggg    gggg",
"gggggggg@@@@1iuuidffffffffffffdiuui3@@@@ggggggggg+@@@#wiuupfffffffffffffauuuu=@@@@ggggggggg@@@@:uuuusfffffffffffffiuuiq#@@@Oggggggggg    gggggggggggggggggggggggg    ggggggggg     ggggggggggggggggggggggg     gggggggg",
"gggggggg    ;eeeedffffffffffffdywee>    ggggggggg    .5eeeufffffffffffffpeeew+    ggggggggg    @weewafffffffffffffueee3    gggggggggg    ggggggggggggggggggggggg     ggggggggg     ggggggggggggggggggggggg     gggggggg",
"gggggggg    :eeeydffffffffffffdyeey>    ggggggggg    .5eeeufffffffffffffpeeew@    ggggggggg    #eeeeafffffffffffffyeee5.   gggggggggg    ggggggggggggggggggggggg     ggggggggg     ggggggggggggggggggggggg     gggggggg",
"gggggggg    :yyeydffffffffffffdyyey,    ggggggggg    .5eeeufffffffffffffaeeee@    ggggggggg    #eeeeafffffffffffffueee3    gggggggggg    ggggggggggggggggggggggg     ggggggggg     ggggggggggggggggggggggg     gggggggg",
"gggggggg    -3335pdsddffffdddda5335;    gggggggggg   .1333wdddafffffddddy5533+    ggggggggg    #3333uddsdffffddddaq353,.   gggggggggg    ggggggggggggggggggggggg     ggggggggg     ggggggggggggggggggggggg     gggggggg",
"gggggggggggg. ..X5eeeuffffieee0o . .gggggggggggggggggg.. .#eeeeaffffeeey> . .ggggggggggggggggggg.. .<yeeudfffaeeee#  ..gggggggggggggggggg     gggggggggggggg    ggggggggggggggggggg     ggggggggggggg     ggggggggggggg",
"gggggggggggg    .5eeeuffffieee0X    gggggggggggggggggg    @eeeeafffdyeey>    ggggggggggggggggggg    <eeeyffffpeeee+    gggggggggggggggggg     gggggggggggggg    ggggggggggggggggggg     ggggggggggggg     ggggggggggggg",
"gggggggggggg    .5eeeuffffieee0X    gggggggggggggggggg    #eeeeafffdeeee>    ggggggggggggggggggg    <eeeydfffaweew@    gggggggggggggggggg     gggggggggggggg    ggggggggggggggggggg     ggggggggggggg     ggggggggggggg",
"gggggggggggg    .5eeeuffffieee0X    gggggggggggggggggg    #eeeeaffffyeey>    ggggggggggggggggggg    <yeeuffffaeeee+    gggggggggggggggggg     gggggggggggggg    ggggggggggggggggggg     ggggggggggggg     ggggggggggggg",
"ggggggggggggggggg&-&&<iipi1&-&&ggggggggggggggggggggggggggg+-&&-0ppiy;&--$ggggggggggggggggggggggggggg#-&&:ypip5&--&Oggggggggggggggggggggggggggg    gggggg    gggggggggggggggggggggggggggg    ggggg    gggggggggggggggggg",
"ggggggggggggggggg    @eewe$    gggggggggggggggggggggggggggg    ,eee0.    ggggggggggggggggggggggggggg    Xqeee>    gggggggggggggggggggggggggggg     gggg     gggggggggggggggggggggggggggg    ggggg    gggggggggggggggggg",
"ggggggggggggggggg    @eeee&    gggggggggggggggggggggggggggg    ,eee0X    ggggggggggggggggggggggggggg    oqeee>    gggggggggggggggggggggggggggg     gggg     gggggggggggggggggggggggggggg    ggggg    gggggggggggggggggg",
"ggggggggggggggggg    #eeee$    gggggggggggggggggggggggggggg    <yey0o    ggggggggggggggggggggggggggg    oqeey>    gggggggggggggggggggggggggggg     gggg     gggggggggggggggggggggggggggg    ggggg    gggggggggggggggggg",
"ggggggggggggggggg    @0000$    gggggggggggggggggggggggggggg    >0005X    ggggggggggggggggggggggggggg    o5q0q:    gggggggggggggggggggggggggggg     gggg     gggggggggggggggggggggggggggg    ggggg    gggggggggggggggggg",
"ggggggggggggggggggggggXooogggggggggggggggggggggggggggggggggggggooooogggggggggggggggggggggggggggggggggggggXoXXXggggggggggggggggggggggggggggggggggggg    ggggggggggggggggggggggggggggggggggggg     gggggggggggggggggggggg",
"gggggggggggggggggggggg    ggggggggggggggggggggggggggggggggggggg     ggggggggggggggggggggggggggggggggggggg     ggggggggggggggggggggggggggggggggggggg    ggggggggggggggggggggggggggggggggggggg     gggggggggggggggggggggg",
"gggggggggggggggggggggg    ggggggggggggggggggggggggggggggggggggg     ggggggggggggggggggggggggggggggggggggg     ggggggggggggggggggggggggggggggggggggg    ggggggggggggggggggggggggggggggggggggg     gggggggggggggggggggggg",
"gggggggggggggggggggggg    ggggggggggggggggggggggggggggggggggggg     ggggggggggggggggggggggggggggggggggggg     ggggggggggggggggggggggggggggggggggggg    ggggggggggggggggggggggggggggggggggggg     gggggggggggggggggggggg",
"gggggggggggggggggggggg    gggggggggggggggggggggggggggggggggggggg    ggggggggggggggggggggggggggggggggggggg    gggggggggggggggggggggggggggggggggggggg    gggggggggggggggggggggggggggggggggggggg   ggggggggggggggggggggggg",
"ggggggggggggggggggggggggggggggggggggggggggggggggggggggggggggggggggggggggggggggggggggggggggggggggggggggggggggggggggggggggggggggggggggggggggggggggggggggggggggggggggggggggggggggggggggggggggggggggggggggggggggggggggggggg",
"ggggggggggggggggggggggggggggggggggggggggggggggggggggggggggggggggggggggggggggggggggggggggggggggggggggggggggggggggggggggggggggggggggggggggggggggggggggggggggggggggggggggggggggggggggggggggggggggggggggggggggggggggggggggg",
"ggggggggggggggggggggggggggggggggggggggggggggggggggggggggggggggggggggggggggggggggggggggggggggggggggggggggggggggggggggggggggggggggggggggggggggggggggggggggggggggggggggggggggggggggggggggggggggggggggggggggggggggggggggggg",
"ggggggggggggggggggggggggggggggggggggggggggggggggggggggggggggggggggggggggggggggggggggggggggggggggggggggggggggggggggggggggggggggggggggggggggggggggggggggggggggggggggggggggggggggggggggggggggggggggggggggggggggggggggggggg",
"ggggggggggggggggggggggggggggggggggggggggggggggggggggggggggggggggggggggggggggggggggggggggggggggggggggggggggggggggggggggggggggggggggggggggggggggggggggggggggggggggggggggggggggggggggggggggggggggggggggggggggggggggggggggg",
"ggggggggggggggggggggggggggggggggggggggggggggggggggggggggggggggggggggggggggggggggggggggggggggggggggggggggggggggggggggggggggggggggggggggggggggggggggggggggggggggggggggggggggggggggggggggggggggggggggggggggggggggggggggggg"
};
