/* XPM */
static char *_c091e095c2e472bab5e486b3f4ebd34oYx8iP0v9a8ZmdPu[] = {
/* columns rows colors chars-per-pixel */
"64 64 6 1 ",
"  c black",
". c gray33",
"X c #A85400",
"o c #00A800",
"O c #54FC54",
"+ c gray66",
/* pixels */
"+++++   .+++++++++      X+++++++      +++++++++++++++++++++++ ++",
"XXXXXXXX   .XXXXXX++   XXXXXXXXX+     XXXXXXXXXXXXXXXXXXXXXX XXX",
"XXXXXXXXXXX  .XXXXXX++ XXXXXXXXX+    XXXXXXXXXXXXXXXXXXXXXXX XXX",
"              .       +                                         ",
"+++++++++++++++++++++++ +++++++++ ++++++++++++++++++++++++++++++",
"XXXXXXXXXXXXXXXXXXXXXXX+ XXXXXXX   XXXXXXXXXXXXXXXXXXXXXXXXXXXXX",
"                        +                                       ",
"                                                                ",
"+++    .XXXXXXXXXX .. X...++          XXXXXXXXXXXX+   XXXX+ +XXX",
"XX   ..XXXXXXXXXX .... .oo.+                                XXXX",
"X       X       X ... oo.oo                  X XXXXXXXXXXX      ",
"   ..++ .X+++++     +.ooooO++++++.    .++++             XX +++++",
"  .XXXXX XXXXXX+       .ooOXXXXXXX   .XXXX+    .+++++++ XX XXXXX",
" .XXXXXX .XXXXXX++       .oXXXXXXXXXXXXXXX+    .XXXXXX+ X +XXX.X",
"          .             .XXXXXXXXXXXXXXXX+      .XXXXXX+     .  ",
"+++++++++ .++++++++X   ..                        .XXXXX+ +++. ++",
"XXXXXXXXX .XXXXXXXXXX  ...XXXXXX  XXX XXXXX              XXX XXX",
"XXXXXX .XX .XXXXXXXXXX . ..XXXX+  XXX XXXXX       .XXXXXXXXX XXX",
"XXXXXXX .XX XXXXXXXXXX .X  ..XX.  X+ ..           .XXXX .  .. XX",
"XXXXXXXX .XX XXXXXXXXX .XXX  ..oo.. ..             .XX ..oo... X",
"                       .     .oo.oo                   . ..ooo.. ",
"                       .     .oooOo  ......          ...   .oo. ",
"                       ..    .oOOo       ....       ..    X  .. ",
"XXXXXXXXXXX ++++        .+++ .oo  . ..... ....++++ ..++++ X XXXX",
"XXXXXXXXXXX XXXX++      ..XX     . . ......... XX ..XXXX+  XXXXX",
"XXXXXXXXXXX XXXXXX+      ..X... . ..   .....  XXX .XXXX+ X XXXXX",
"            XXXXXXX+      ....X  ..XXX      XXXX . XXXX+ X      ",
"+++++++++++           ..   .    ..XXXXX          .....   +++ +++",
"XXXXXXXXXXXXXXXXXXXXXX..X  ..XX . XXXXXXX+    X .. + .. XXX+ XXX",
"XXXXXXXXXXXXXXXXXXXXXX..X  ..X .. XXXXXXX+    X . X+  ..XX+ XXXX",
"XXXXXXXX +++++++++++XX  XX  .  .  XXXXXXXX+    .. X+    XX+ XXXX",
"XXXXXXX  XXXXXXXXXX+XX ...    .. XXXXXXXXX+   .. XXX+  XX+  XXXX",
"XXXXXX  XXXXXXXXXXXX+X .... X .. XXXXXXXXXX+ .. XXXX+  XX+ XXXXX",
"XXXXXX  XXXXXXXXXXXX+X .... X .. XXXXXXXXXX+ . XXXXX+  X+ XXXXXX",
"          .oo.oo. .     ...   .. .    oooo  ..          +       ",
"XXXXXXXXX oo.ooOo. . XX  .    ..  +  ...ooo...++++X XXXX+ XXXXXX",
"XXXXXXXX. oo.ooOo.X XX++      .. oX oooo.oo .XXXXX+ XXX+ XXXXXXX",
"       .. ooooOo .  XXXX+     ..XoX oOoooooo XXXXXX+            ",
".XXXXX..   ooOo  .X XXXX+      .oXX oOOooooo XXXXXXX+++     XXXX",
" .XXXXX XX  OoXX .. .XXX+      .o   .ooOOOOo           ++.  XXX.",
"  ...XXXXXX  XXX  .X .XX+      ..XX   .ooooo XXXXXXXXXXXX+  XXX.",
"     ...XXX+      .    ...      ..XX .       ..     XXXXX+  XX..",
"                   .++++. .          . ...++..+.++X XX...+    ..",
"             .XXXX  .XXX+ ..    .... . .... XX.X.X+     ...   ..",
"++.         .XXXXX.. .XXX+ ... ....     ... XX.X.X+ X+   ..+ ..+",
"XX+         .XXXXXX. .XXX+   . ... ...   .. XXX... XXXX.. .. ..X",
"XX+         .XXXXX.  .X.X+     ........    XXXXX..    .oo.oo..XX",
"XX+         ..XXX     .      o ........  .XXXXX..     oo.ooOo.XX",
"XX+         ..X ..  .. XXXX oo ........        .  ..  oo.ooOo.XX",
"            ... .. ..  XXXX oo  ......            . ..ooooOo .. ",
"+++               ... X     oooo                  .... ooOo   ..",
"XXXX         .++++  .. ooo.    .  XX.     .        ...  oo XX  .",
".XXX  o.  ....XXXXX+   .ooo.   .    .    .                XXX.  ",
"..X oo.o   ...XXXXX+ .oo.ooo +  .  . XXXX.X              ..XX.X ",
" .. .ooo      XXXXX+ oOoo.ooo   .  . XXXX.XXXXXXXXXXXXX   .X..XX",
"X ..    X XXXX.XXXXX .oOOooOo X .  .     .              X ....XX",
"   .  XXX XXXX .XXXX+ .ooOOOoXX  . .   ....  ++++ XXXX+    ..   ",
"    ..          ..      .oooo X  . . XXXX .. XXX+ XXXXX++  ..   ",
"    ...          ..X  ..      XX  .. XXXXX ..XXXX+ XXXX+   ..   ",
"XXX  ..XXXXXXX   ..  .. ..XX+ XX   .. XXXXX ...XX+ XXXX+  ..XXXX",
"    .. . .          ..  .          ..         .   ...... ..     ",
"+++ ..+ .+++++++ + ..+ ...++++++++  .. +++++ .......+++ .. +++++",
"XX ..XX ..XXXXX+ X .XX . .XXXXXXXX  ....   ... +   ..  .. XXXXXX",
"X ..XXXX ...XXX+  ..X ..X .XXXXXXXX  .......  X+ X    .. XXXXXXX"
};
