/* XPM */
static char *_b724f276bef46f7919e37d12cc19aaeLN09erm10P1ZD9lD[] = {
/* columns rows colors chars-per-pixel */
"64 64 6 1 ",
"  c black",
". c #A80000",
"X c #A85400",
"o c #FC5454",
"O c #0000A8",
"+ c gray66",
/* pixels */
"++++++++++++++++++++++++++++++++ O +++++++++++++++++++++++++++++",
"XXXXXXXXXXXXXXXXXXXXXXXXXXXXXXXX+ XXXXXXXXXXXXXXXXXXXXXXXXXXXXXX",
"XXXXXXXXXXXXXXXXXXXXXXXXXXXXXXXX+ XXXXXXXXXXXXXXXXXXXXXXXXXXXXXX",
"                                                                ",
"+++++++++++++++++++++++++++++++++ ++++++++++++++++++++++++++++++",
"XXXXXXXXXXXXXXXXXXXXXXXXXXXXXXXX   XXXXXXXXXXXXXXXXXXXXXXXXXXXXX",
"                                                                ",
"                                                                ",
"XXXXXXXXXXXXXXXXXXXXXXXXXX++  XXXXXXXXXXXXXXXXXXXX+   XXXX+ +XXX",
"XXXXXXXXXXXXXXXXXXXXXXXXXXX+                                XXXX",
"                XX                          XXXXoXoXoXXXXX      ",
"+++++++++++++++     +++++++++++++++++++++++ X XX  oo   oXX +++++",
"XXXXXXXXXXXXXXX+     XXXXXXXXXXXXXXXXXXXXX+ X     o     oX XXXXX",
"XXXXoXXXXXXXXXXX++   XXXXXXXXXXXXXXXXXXXXX+ X           o +XXXXX",
"                     XXXXXXXXXXXXXXXXXXXX+ X                    ",
"++++++oo+++++++++++X                       X           o +++++++",
"XXXXXXXXXoXXXXXXXXXXXX XXXXXXXXX  XXXXXXXXXXX X +      + ooXXXXX",
"XXXX     .oXXXXoXXXX  XXXXXXoXX+  XXXXXXXXXXXXXXX X+++Xo  XXXXXX",
"XXXXXXXXX  ooX XooX   XXX XooXX+  XXXX+++++++++++ XXXXXXXo  XXXX",
"XXXXXXXXX X .oo  oo  X oX  .oX+   XXXXoXXXXXXXXXX+ XXXXXXoXXXXXX",
"                               X   XXooXXXXXXXXXX+              ",
"                              XXX       X X  XX      XX         ",
"                                             X            X     ",
"XXXX X+  ++                   X X  X XX                   X XXXX",
"XXXXXXXXXXXX                   XXXoXXX                     XXXXX",
"XXXXXXXXXXX                   XXXooXXXX X                X XXXXX",
"           XX                   o.XXXX   X              XX      ",
"+++++++++++  +       + +X  +  Xo.XXXX  X                 +++++++",
"XXXXXXXXXXXXX.oo     XX+ XXX ooo.XXXX XXX+X             ooXXXXXX",
"XXXXXXXXXXXXXX.o   X ooXXXX+ oo.XXXXXXXXX+              oooXXXXX",
"XXXXXXXX +++++++  ++ .oooX+ .ooooooXXXXXXX+            ooooooXXX",
"XXXXXXX  XXXXX    X+XX..o+ ..ooo..XooXoXXX+           +o. o..XXX",
"XXXXXX  XXXXX XXooXX+XX.+ ..oXo.XXXXXXXXXXX+          o.X   XXXX",
"XXXXXX  XXXXXXXXXXXX+XX++  .XooXXXXXXXXXXXX+XX    +o ooXXXXXXXXX",
"                         X .ooo                X  oo .oo        ",
"XXXXXXXXXXXXXXXXXXXX   X+++++.oo+++++++++++++++++oooXX.oXXXXXXXX",
"XXXXXXXXXXXXXXXXXXXXX  XXXXXXX.oXX XXXXXXXXXXXXXXX+ XXXoXXXXXXXX",
"                       XXXXXXX.oXXX  XXXXXXXXXXXXXo+            ",
"XXXXXXXXXXXX+ XXXXXXXX XXXXXXX.oXXXXX  XXXXXXXXXXXoX+++o     XXX",
"XXXXXX  XXXX+ XXXXXXXX                           o     +++  XXXX",
"XXXX  XXXXX+ XXXXXXXXXXX.ooXXXX   XXXXXXX XXXXXXoXXXXXXXX+  XXXX",
"XXX XXXXXXX+              .oXXXoXX X XX X    XX X  XXXXXX+   XXX",
"            X++++++++o+++  XX X                   XXXXXXX+      ",
"         XXXXXXXXXX.ooXX+                                       ",
"+++++++X XXXXXXXXoooo.ooo+                          X+++++++ +++",
"XXXXXXXX XXXXXXXXXXXX.ooX+                         XXXXXXXX+ XXX",
"XXXXXXXXX XXXXXXXXXXooooX+                        X         XXXX",
"XXXXXXoXX              oo  +                       X      XXXXXX",
"XXXXX.ooX XXXXXXXXXXXX .oooo+++                  + +++++++ XXXXX",
"          XX X  X XXX  Xoo.ooooooXX    ++++   + +XXXXXXX+       ",
"+++++    .oo          Xoo..o..Xo  ++ +XXXX+   XXXXXXXXX+ X++++++",
"XXXXX XX o.          XXoXX.oXX  X.oooXoXX+   XXXXXXXXXX+ XXXXXXX",
"XXXX XXXX            X     oo                XXXXXXXXXX+ XXXXXXX",
"XXXX XXXo.            +++++.oo XXX  XXXXXXX               XXXXXX",
"XXXX XXX.o           XXXXXX.oo XXX  XXXXXXXXXXXXXXXXXXX XX X XXX",
"XXX XXXX.o                  o XXXX               X  XXX XXX  XXX",
"   XXXXX.             XXXXX+oXXXXXX          XX X     XXX       ",
"         X         X XXXXXX+ oXXXXX      XXXX        X          ",
"                 XXXXXXXXXXX+oXX   XXXXXX                       ",
"XXXXXXXXXXXXXX   XXXXXXXXXXX+oX XXXXXXXXXXX              XXXXXXX",
"                                                                ",
"++++++++++++++++ +++++++++++++++++++++++++++++++ +++++++++++++++",
"XXXXXXXXXXXXXXX+ XXXXXXXXXXXXXXXXXXXXXXXXXXXXXX+ XXXXXXXXXXXXXXX",
"XXXXXXXXXXXXXXX+ XXXXXXXXXXXXXXXXXXXXXXXXXXXXXX+ XXXXXXXXXXXXXXX"
};
