/* XPM */
static char *_c0efd3559234c2c8f128940ec2b6538NCqf46hglUqziDgS[] = {
/* columns rows colors chars-per-pixel */
"64 64 6 1 ",
"  c black",
". c gray33",
"X c #A85400",
"o c #00A800",
"O c #54FC54",
"+ c gray66",
/* pixels */
"++++++++++++++++++++++++++++++++   +++++++++++++++++++++++++++++",
"XXXXXXXXXXXXXXXXXXXXXXXXXXXXXXXX+ XXXXXXXXXXXXXXXXXXXXXXXXXXXXXX",
"XXXXXXXXXXX..XXXXXXXXXXXXXXXXXXX+ XXXXXXXXXXXXXXXXXXXXXXXXXXXXXX",
"          ooo.                                                  ",
"++++++++..oooO.++++++++++++++++++ ++++++++++++++.....+++++++++++",
"XX.XXX...X  .o.XXXXXXXXXXXXXXXXX   XXXXXXXXXXXX...ooo.XXXXXXXXXX",
"   ....                                        .oo..oo          ",
"     .. .....  .                              ..oooooo.         ",
"XXXXX ..XXXXXXXXXX .. X...++  XXXXX .. XXXXXX.. ooOoooOXXX+ +XXX",
"XXXXXX ...XXXXXXX .... .oo.+       ....     ..  ..oOOOo     XXXX",
"        .       X ... oo.oo        .... .  ..XXX     ..XXX      ",
"+++++++ ..+++++     +.ooooO+++++++ ..  +... X           XX +++++",
"XXXXXXXX ..XXXX+     X .ooOXXXXXXX   XX ..+ X +++++++++ XX XXXXX",
"XXXXXXXX ..XXXXX++   XX  .oXXXXXXXXXXXX ..+ X XXXXXXXX+   +XXX.X",
"          .          XX .XXXXXXXXXXXXX ..+ X XXXXXXXXXX+.    .  ",
"+++++++++ ..+++++++X   ..              .   X XXXXXXXXXX+ .+.. ++",
"XXXXXXXXX ..   XXXXXX  ...XXXXXX  XXX .. XXX             ... XXX",
"XXXXXXX ... ... XXXXX  . ..XXXX+  XXX . XXXXXXXXX XXXXXX .   XXX",
"XXXXXX ooo.. ... XXXX  .X  ..XX.  X+ .. +++++++++ XXXXX .  .. XX",
"XXXXX oo..oo.   XXXXX  .XXX  ..oo.. .. XXXXXXXXXX+ XXX .. .... X",
"     oo..ooo.          .     .oo.oo     XXXXXXXXX+    . ....... ",
"     oo.ooOo.          .     .oooOo  ......          ...   .... ",
"     ooooOo.   X       ..    .oOOo       ....       ..    X  .. ",
"XXXX oOOOo  .+++++++++  .+++ .oo  . ..... ....++++ ..++++ X XXXX",
"XXXX        .XXXXXXXXXX ..XX     . . ......... XX ..XXXX+  XXXXX",
"XXXXXXXXXX  .     XXXXX  ..X... . ..   .....  XXX .XXXX+ X XXXXX",
"             ...   X...X  ....X  ..XXX      XXXX . XXXX+ X      ",
"+++++++++++ ... ... ....   .    ..oo..X          .....   +++++++",
"XXXXXXXXXXX ....... ....X  ..XX .oo.ooXXX+    X .. + .. XXXXXXXX",
"XXXXXXXXXX .......   ...X  ..X ..oooOoXXX+    X . X+  ..XXXXXXXX",
"X.XXXXXX . ...... .oo   XX  .  . oOOo.XXXX+    .. X+    XXXXXXXX",
".XXXXXX  X ..... o..oo ...    ..   ..XXXXX+   .. XXX+  XXXXXXXXX",
".XXXXX  XXX      ooo.O .... X ..  ..XXXXXXX+ .. XXXX+  XXXXXXXXX",
" .XXXX  XX ..XX . ooOO .... X .. ..XXXXXXXX+ . XXXXX+  XXXXXXXXX",
" ..       .oo.oo. .     ...   .. .    oooo  ..                  ",
"  .XXXXXX oo.ooOo. .  ooo.+++ ..  +  ...ooo...++++X XXXXXXXXXXXX",
"X ..XXXX. oo.ooOo.X ....oo.XX .. oX oooo.oo .XXXXX+ XXXXXXXXXXXX",
"   .   .. ooooOo .  oooo.o.XX ..XoX oOoooooo XXXXXX+            ",
"XX ..X..   ooOo  .X ooooooo.XX .oXX oOOooooo XXXXXXX+++     XXXX",
"XX .... XX  OoXX .. .oOoooo.   .o   .ooOOOOo           ++X  XXX.",
"XXX .. XXXX  XXX  .X .oOOOo.XX ..XX   .ooooo XXXXXXXXXXXX+  XXX.",
"XXX .. XXXX+      .    .....XXX ..XX .       ..     XXXXX+  XX..",
"            X+++++..+++++ .          . ...++..+.++X XX...+    ..",
"      oo.XXXXXXX    .XXX+ .. XX .... . ....XXX.X.X+     ...   ..",
"+++  .ooo.XXXXX oo.. .XXX+ ... ....     ...XXX.X.X+ X+   ..+ ..+",
"XX .oo.Oo.XXXX oo.o. .XXX+   . ... ...   ..XXXX... XXXX.. .. ..X",
"XX oooooOo.XXX ooO.  .X.X+     ........    XXXXX..    .oo.oo..XX",
"XX .ooooOo.    oO     .      o ........ XXXXXXX..     oo.ooOo.XX",
"XX  .oooOo.XXX  ..  .. XXXX oo ........        .  ..  oo.ooOo.XX",
"      .oOo.     .. ..  XXXX oo  ......  XXX   XXX . ..ooooOo .. ",
"+++       ...     ... X     oooo       XXX+   XXX .... ooOo   ..",
"XXXX    X ....++++  .. ooo.    .  XX. XXX+   XXXXX ...  oo XX  .",
".XXX  o.  ....XXXXX+   .ooo.   .    .        XXXXXX       XXX.  ",
"..X oo.o   ...XXXXX+ .oo.ooo +  .  . XXXX.X              ..XX.X ",
" .. .ooo      XXXXX+ oOoo.ooo   .  . XXXX.XXXXXXXXXXXXX   .X..XX",
"X ..    X XXXX.XXXXX .oOOooOo X .  .     .              X ....XX",
"   .  XXX XXXX .XXXX+ .ooOOOoXX  . .   ....  ++++ XXXX+    ..   ",
"    ..          ..      .oooo X  . . XXXX .. XXX+ XXXXX++  ..   ",
"    ...          ..X  ..      XX  .. XXXXX ..XXXX+ XXXX+   ..   ",
"XXX  ..XXXXXXX   ..  .. ..XX+ XX   .. XXXXX ...XX+ XXXX+  ..XXXX",
"    .. . .          ..  .          ..         .   ...... ..     ",
"+++ ..+ .+++++++ + ..+ ...++++++++  .. +++++ .......+++ .. +++++",
"XX ..XX ..XXXXX+ X .XX . .XXXXXXXX  ....   ... +   ..  .. XXXXXX",
"X ..XXXX ...XXX+  ..X ..X .XXXXXXXX  .......  X+ X    .. XXXXXXX"
};
