/* XPM */
static char *c474205b414d4228a5bb029fe4ed869albY3k5aVljRUR4jW[] = {
/* columns rows colors chars-per-pixel */
"64 64 6 1 ",
"  c black",
". c gray33",
"X c #A85400",
"o c #FCFC54",
"O c gray66",
"+ c gray99",
/* pixels */
"XOOOOOOOOOOOOOOOOOOOOOOOOOOOOOOO   OOOOOOOOOOOOOOOOOOOOOOOOOOOOX",
".XXXXXXXXXXXXXXXXXXXXXXXXXXXXXXXO XXXXXXXXXXXXXXXXXXXXXXXXXXXXXO",
".XXXXXXXXXXXXXXXXXXXXXXXXXXXXXXXO XXXXXXXXXXXXXXXXXXXXXXXXXXXXXO",
"                                                                ",
"OOOOOOOOOOOOOOOOOOOOOOOOOOOOOOOOO OOOOOOOOOOOOOOOOOOOOOOOOOOOOOO",
"XXXXXXXXXXXXXXXXXXXXXXXXXXXXXXXX   XXXXXXXXXXXXXXXXXXXXXXXXXXXXX",
"                                                                ",
"                                                                ",
".XXXXXXXXXXXXXXXXXXXXXXXXXXO  XXXXXXXXXXXXXXXXXXXXO   XXXXO OXX.",
".XXXXXXXXXXXXXXXXXXXXXXXXXO.                                XXX.",
"                                              XXXXXXXXXXXX      ",
"OOOOOOOOOOOOOOO             .XO    .XO.          XOOOOOOOOOOOOOX",
"XXXXXXXXXXXXXXXX           ...XO  .XXXO.         XXXXXXXXXXXXXXO",
"XXXXXXXXXXXXOO             ...XO  .XXXO.          XXXXXXXXXXXXXO",
"                         ....XX    XXOOOO                       ",
"OOOOOOOOOOOO.         ...XXX.XO    .XO...OOO          XOOOOOOOOO",
"XXXXXXXXXXOX.     ....XXX   .XO    .XO   .XXOOOO     .XXXXXXXXXX",
"XXXXXXXXXOX.. ....XXX.XO    .XO    .XO    .XO...OOO...XXXXXXXXXX",
"XXXXXXXXXOX.. .XXX   .XO    .XO    .XO    .XO   .XXO .XXXXXXXXXX",
"XXXXXXXXXX  . .XO    .XO    .XO    .XO    .XO    .XO  .XXXXXXXXX",
"          ..  .XO    .XO    .XO    .XO    .XO    .XO            ",
"         .    .XO    .XO    .XO .  .XO    .XO    .XO    .       ",
"              .XO    .XO    .XO .  .XO    .XO    .XO    .       ",
" .OXOOOOOX    .XO    .XO    .XO .  .XO    .XO    .XX    . XXXXXX",
".XXXXXXXXO    .XO .  .XO    .XO  . .XO    .XO    .XO    . XXXXXX",
".XXXXXXXXO    .XO    .XO .  .XO .. .XO    .XO    .XX    . XXXXXX",
"              .XO    .XO .  .XO  . .XO    .XO .  .XX            ",
"XOOOOOOOO     .XO .  .XO .  .XO  . .XO    .XO .  .XO    XOOOOOOX",
".XXXXXXXXO    .XO    .XO .  .XO  . .XO    .XO .  .XO    OXXXXXXO",
"XXXXXXXXXO    .XO .  .XO .  ..O  . .XO    .XO .  .XX    XXXXXXXO",
".XXXXXXXXO    .XO    .XO  . .X.  . .XO    .XO  . .XO    XXXXXXXX",
"XXXXXXXXXO    .XO .  .XO  . .X.  . .XO    .XO .. .XO    XXXXXXXO",
"XXXXXXXXXO    ..O .  .XO  . .XO .  .XO    .XO  . .XO    XXXXXXXX",
"XXXXXXXXXX    .X. .  .XO  . .XO.   .XO .  .XO  . .XO    XXXXXXXX",
"              .XO. . .XO  . .XO. . .XO  . .XO .. .XO            ",
"OXOXOOOOX   . .XO. . .XO    .XO. . .XO  . .XO  . .XO     XXXXXXX",
".XXXXXXXO     .XX. . .XO  . .XO. . .XO .. .XO .. .XO     XXXXXXX",
"            . .XX .. .XO  . .XO.XXX.XO .. .XO  . .XO .          ",
"XOOOOOOOOO  . .XO  . .XO . o.XO. . .XOo.. .XO  . .XO .  XOOOXOXX",
".XXXXXXXXXO . .XO .. .XO .  ooOoX+OoXo  . .XO .. .XO .  OXXXXXXX",
".XXXXXXXXXO . .XX .. .XO . o.Xo XOo.oOo.. .XO .. .XO .  XXXXXXXX",
".XXXXXXXXX  . .XO .. .XO .  ooOoo +OXo .. .XO .. .XO .  XXXXXXXX",
"            . .XO .. .XO .  .XO X o.XO .. .XO  . .XO  .         ",
"            . .XO  . .XO .  ..OX+oooXO... .XO  . .XO .          ",
"OOOOOOOX    . .XO  . .XO  . .X.XoO.oXO. . .XO  . .XO .. XOOOOOOO",
"XXXXXXXO    . .XO .. .XO  . ..OXoOXoXO .. .XO .  .XO .. OXXXXXXX",
"XXXXXXXO    . .XO .. .XX .  .X.Xo..oXO .. .XO .  .XO .. XX.XXXXX",
"XXXXXXXO   .. .X. .. .XO    .XO.Xoo.XO .  .XO .  .XO .. XXX.XXXX",
"XX.XXXXX   .. ..  .  .XX . ..XO .  .XO ..  .O  . .XX ..   X.X.XX",
"  .        .. ..O .  .XO   ..XO .  .XO .. . .  . .XO ..      .  ",
"XO.OO      .. .XO  . .XX .  .XO  . .XO . ..X.. . .XX ..  XOO.OOX",
".X..X OOO  .. .XO .. .XO .  .XO  . .XO . ..XO... .XX .   OXX.XXO",
".XX. XXXXO  . .XO  . .XO .  .XO .  .XO .  .XO .. .XO .   XX.XXXO",
".XX. .XXXO  . .XX  . .XO .  .XX .  .XO .  .XO .. .XO . . XX.XXXO",
".XX. .XXXO  . .XX  . .XO.  ..XX    .XO .  .XX .. .XX  .. XX.XXXO",
".XX ..XXXO  . .XO  . .XO. ...XO .  .XO .  .XX... .XO ... XX..XXO",
"   X..X.X  .  .XX .  .XO. . .XX .. .XO .. .XO..  .XX ...    .   ",
"    . .    .  .XO  . .XX.   ..O .. .XO  . .X. .  .XO .. .  . .  ",
"    . .    .  .XO .. .XO  . .X. .. .XO  . ..O .  .XO ..    . .  ",
"XXX...X   . . .XO  . .XO  . .XO... .XO  . .XO  . .XX .. XXX.X.XX",
"   ....   . . .XX .. .XX  . .XO..  .XO  ...XX  . .XX .     . .. ",
"OOOO...OO   . .XX .  .XO    .XO .. .XO   ..XO  . .XX   XOO..O..O",
"X.X....XXOXXXX.XOXXXX.XOXXXX.XO .  .XOXXXXXXXXXXXXXOXX.XXX.....X",
"X...X...XO......X......X......X    ..X......X......X...XX......X"
};
