/* XPM */
static char *_7fe1a7a823c4355c2401c6474f85d83z3KrTue8irZ4zRDs[] = {
/* columns rows colors chars-per-pixel */
"64 64 3 1 ",
"  c black",
". c #A85400",
"X c gray66",
/* pixels */
"XXXXXXXXXXXXXXXXXXXXXXXXXXXXXXXX   XXXXXXXXXXXXXXXXXXXXXXXXXXXXX",
"................................X ..............................",
"................................X ..............................",
"                                                                ",
"XXXXXXXXXXXXXXXXXXXXXXXXXXXXXXXXX XXXXXXXXXXXXXXXXXXXXXXXXXXXXXX",
"................................   .............................",
"                                                                ",
"                                                                ",
"..........................XX  ....................X   ....X X...",
"...........................X                                ....",
"                                               ...........      ",
"XXXXXXXXXXXXXXX    XXXXXXXXXXXXXXXXXXXXXXXXXXX          .. XXXXX",
"...............X  ...........................X XXXXXXXX .. .....",
"................  ...........................X .......X . X.....",
"                   .........................X .........X        ",
"XXXXXXXXXXXXXXXXX.                            .........X XXXXXXX",
"...................X                                     .......",
"...................X                        XXXXX ..............",
"...................X                        .....X..............",
"...................X                        .....X .............",
"                                            .....X              ",
"                                                     ..         ",
"               .                                          .     ",
"........... XXXXXX                          XXXXXXXXXXXXX . ....",
"........... ......X                         ............X  .....",
"........... ......X                         ...........X . .....",
"            ......X                          ..........X .      ",
"XXXXXXXXXXX                                              XXXXXXX",
"................X                             ....XX    ........",
"................X                             .....X    ........",
"........ XXXXXXXXXX                           .....X    ........",
".......  ..........X                          ......X  .........",
"......  ...........X                          ......X  .........",
"......  ...........X                           .....X  .........",
"                                                                ",
"..................X                         XXXXXX. ............",
"..................X                         ......X ............",
"                                            .......X            ",
"............X ..X                           ........XXX     ....",
"............X ..X                                      XXX  ....",
"...........X ...X                             ...........X  ....",
"...........X      XXXXXXXXXXXXXXXXXXXXXXXXXXXX ..........X  ....",
"            .XXX ............................X ..........X      ",
"         ....... ............................X ....             ",
"XXXXXXX. ....... ...........................X ..... .XXXXXXX XXX",
"........ ........                             .............X ...",
"......... ...............X    .....................         ....",
".........                  .  .....................       ......",
"......... ............ .....                       XXXXXXX .....",
"                       ....................   ..........X       ",
"XXXXX                 ....................X   .........X .XXXXXX",
"..... ...  XXXXXXXXX ....................X   ..........X .......",
".... .... .........X .                       ..........X .......",
".... .... .........X  XXXXXXXX ...  .......             ........",
".... .... .........X ........X ...  ................... ........",
"... ..... ..........X         ....                      ........",
"   ...... ..........X .....X ......          XXXX ....X         ",
"                      .....X  .............. ...X .....XX       ",
"                 ...........X ............. .....X ....X        ",
"..............   ...........X ............. .....X ....X .......",
"                                                                ",
"XXXXXXXXXXXXXXXX XXXXXXXXXXXXXXXXXXXXXXXXXXXXXXX XXXXXXXXXXXXXXX",
"...............X ..............................X ...............",
"...............X ..............................X ..............."
};
