/* XPM */
static char *_4784_cec679fa900ac70ac7db1e957dc5ec92eab5009b48225a1aa5b7d986879eb1f7[] = {
/* columns rows colors chars-per-pixel */
"64 64 7 1 ",
"  c #584000",
". c #A09028",
"X c #A89028",
"o c #C0A830",
"O c #E0C838",
"+ c #F8F048",
"@ c None",
/* pixels */
"@@@@@@@@@@@@@@@@@@@@@@@@@@@@@@@@@@@@@@@@@@@@@@@@@@@@@@@@@@@@@@@@",
"@@@@@@@@@@@@@@@@@@@@@@@@@@@@@@@@@@@@@@@@@@@@@@@@@@@@@@@@@@@@@@@@",
"@@@@@@@@@@@@@@@@@@@@@@@@@@@OOOOOOOOOO@@@@@@@@@@@@@@@@@@@@@@@@@@@",
"@@@@@@@@@@@@@@@@@@@@@@@OOOOOOOOOOOOOO+++@@@@@@@@@@@@@@@@@@@@@@@@",
"@@@@@@@@@@@@@@@@@@@@@OOOOOOOOOOOOOOOO+++++O@@@@@@@@@@@@@@@@@@@@@",
"@@@@@@@@@@@@@@@@@@@oOOOOOOOOOOOOOOOOO++++++++@@@@@@@@@@@@@@@@@@@",
"@@@@@@@@@@@@@@@@@oooOOOOOOOOOOOOOOOOOO+++++++++@@@@@@@@@@@@@@@@@",
"@@@@@@@@@@@@@@@@oooooOOOOOOOOOOOOOOOOO++++++++++X@@@@@@@@@@@@@@@",
"@@@@@@@@@@@@@@@ooooooOOOOOooXXXXXXXoOO+++++++++++X@@@@@@@@@@@@@@",
"@@@@@@@@@@@@@@oooooooOOooXXXOOOOOO++OOO+++++++++++XX@@@@@@@@@@@@",
"@@@@@@@@@@@@@ooooooooOoXXOOOOOOOOO++++++O++++++++++XX@@@@@@@@@@@",
"@@@@@@@@@@@@ooooooooOXXOOOOOOOOOOO+++++++O++++++++++XX@@@@@@@@@@",
"@@@@@@@@@@@oooooooOooOOOOOOOOOOOOO+++++++++O+++++++++XX@@@@@@@@@",
"@@@@@@@@@@XooooooOoooOOOOOOOOOOOOO++++++++++O+++++++++XX@@@@@@@@",
"@@@@@@@@@@XoooooOooooOOOOO.........++++++++++O++++++++OX@@@@@@@@",
"@@@@@@@@@XXooooOOoooooOOOO+oOOOOOO.+++++++++++O++++++++XX@@@@@@@",
"@@@@@@@@XXXoooOOooooooOOOO+oOOOOOO.++++++++++++O++++++++XX@@@@@@",
"@@@@@@@@XXXooOOOooooooOOOO+oOOOOOO.+++++++++++++O+++++++XX@@@@@@",
"@@@@@@@XXXXXoOOooooooooOOO+oOOOOOO.O+++++++++++++++++++++XX@@@@@",
"@@@@@@@XXXXX+OoooooooooOOO+oOOOOOO.O+++++++++++++O+++++++XX@@@@@",
"@@@@@@XXXXXX+OXoooooooooOO+oOOOOOO.O++++++++++++++o+++++++XX@@@@",
"@@@@@@XXXXX++XXoooooooooOO+oOOOOOO.OO+++++++++++++o+++++++XX@@@@",
"@@@@@@XXXXX+OXXXooooooooOO+oOOOOOO.OO+++++++++++++++++++++XXX@@@",
"@@@@@XXXXX++XXXXoooooooooO+oOOOOOO.OOO+++++++++++++o+++++++XX@@@",
"@@@@@XXXXX++XXXXXooooooooO+oOOOOOO.OOOO++++++++++++++++++++XX@@@",
"@@@@@XXXXX++XXXXXXoooooooo+oOOOOOO.OOOOO+++++++++++++++++++OX@@@",
"@@@@@XXXX+++XXXXXXXooooooo+oOOOOOO.OOOOO+++++++++++++++++++OXX@@",
"@@@@XXXXX++XXXXXXXXooooooo+oOOOOOO.OOOOOOO++++++++++o++++++OXX@@",
"@@@@XXXXX++XXXXXXXXXoooooo+oOOOOOO.OOOOOOOOO++++++++o++++++OXX@@",
"@@@@XXXXX++XXXXXXXXXXooooo+oOOOOOO.OOOOOOOOOOO++++++o++++++OXX@@",
"@@@@XXXXX++XXXXXXXXXXXoooo+oOOOOOO.OOOOOOOOOOOOO++++oOOO+++OXX@@",
"@@@@XXXXX++XXXXXXXXXXXXooo+oOOOOOO.OOOOOOOOOOOOO+++++OOOO++OXX@@",
"@@@@XXXXX++XXXXXXXXXXXXXXo+oOOOOOO.OOOOOOOOOOOOOOOO++OOOOOOoXX@@",
"@@@@XXXXX++XXXXXXXXXXXXXXo+oOOOOOO.OOOOOOOOOOOOOOOOOOOOOOOOo  @@",
"@@@@XXXXX++XXXXXXXXXXXXXXX+oOOOOOO.OOOOOOOOOOOOOOOOOoOOOOOOo  @@",
"@@@@XXXXX++XXXXXXXXXXXXXXX+oOOOOOO.OOOOOOOOOOOOOOOOOoOOOOOO   @@",
"@@@@XXXXX++XXXXXXXXXXXXXXX+oOOOOOO.OOOOOOOOOOOOOOOOOoOOOOOO   @@",
"@@@@@XXXX+++XXXXXXXXXXXXXX+oOOOOOO.OOOOOOOOOOOOOOOOOOOOOOOX   @@",
"@@@@@XXXXX++XXXXXXXXXXXXXX+oOOOOOO.oOOOOOOOOOOOOOOOOOOOOOOX  @@@",
"@@@@@XXXXX++XXXXXXXXXXXXXX+oOOOOOO.ooOOOOOOOOOOOOOOOOOOOOOX  @@@",
"@@@@@XXXXX++XXXXXXXXXXXXXX+oOOOOOO.ooooOOOOOOOOOOOOoOOOOOOX  @@@",
"@@@@@@XXXXX++XXXXXXXXXXXXX+oOOOOOO.oooooOOOOOOOOOOOOOOOOOX  @@@@",
"@@@@@@XXXXX++XXXXXXXXXXXXX+ooOOOOO.ooooooOOOOOOOOOOOOOOOOX  @@@@",
"@@@@@@XXXXXX++XXXXXXXXXXXX+oooOOOO.oooooooOOOOOOOOOOOOOOOX  @@@@",
"@@@@@@@XXXXX++XXXXXXXXXXXX+ooooOOO.oooooooooOOOOOOOOOOOOX  @@@@@",
"@@@@@@@XXXXXX++XXXXXXXXXXX+oooooOO.ooooooooooOOOOOOOOOOOX  @@@@@",
"@@@@@@@@XXXXX+++XXXXXXXXXX+ooooooO.ooooooooooooOOOOOOOOO  @@@@@@",
"@@@@@@@@XXXXXX++XXXXXXXXXX+ooooooo.ooooooooooooOooOOOOOX  @@@@@@",
"@@@@@@@@@XXXXXX++XXXXXXXXX+ooooooo.XooooooooooOooooooOX  @@@@@@@",
"@@@@@@@@@XXXXXXX++XXXXXXXX+++++++++XXXoooooooOoooooooXX @@@@@@@@",
"@@@@@@@@@@XXXXXXX+++XXXXXXXXXXXXXXXXXXooooooOooooooooX  @@@@@@@@",
"@@@@@@@@@@@XXXXXXX+++XXXXXXXXXXXXXXXXXXooooOooooooooX  @@@@@@@@@",
"@@@@@@@@@@@@XXXXXXXX+++XXXXXXXXXXXXXXXXXo+oooooooooX  @@@@@@@@@@",
"@@@@@@@@@@@@@XXXXXXXX+++XXXXXXXXXXXXXXXOOoooooooooX  @@@@@@@@@@@",
"@@@@@@@@@@@@@@XXXXXXXXX+++++XXXXXXXXOOOXXoooooooo   @@@@@@@@@@@@",
"@@@@@@@@@@@@@@@XXXXXXXXXXX++++++++++XXXXXXXooooo  @@@@@@@@@@@@@@",
"@@@@@@@@@@@@@@@@XXXXXXXXXXXXXXXXXXXXXXXXXXXXooo  @@@@@@@@@@@@@@@",
"@@@@@@@@@@@@@@@@@XXXXXXXXXXXXXXXXXXXXXXXXXXXXXX@@@@@@@@@@@@@@@@@",
"@@@@@@@@@@@@@@@@@@@XXXXXXXXXXXXXXXXXXXXXXXXXX@@@@@@@@@@@@@@@@@@@",
"@@@@@@@@@@@@@@@@@@@@@XXXXXXXXXXXXXXXXXXXXXX@@@@@@@@@@@@@@@@@@@@@",
"@@@@@@@@@@@@@@@@@@@@@@@@XXXXXXXXXXXXXXXX@@@@@@@@@@@@@@@@@@@@@@@@",
"@@@@@@@@@@@@@@@@@@@@@@@@@@@XXXXXXXXXX@@@@@@@@@@@@@@@@@@@@@@@@@@@",
"@@@@@@@@@@@@@@@@@@@@@@@@@@@@@@@@@@@@@@@@@@@@@@@@@@@@@@@@@@@@@@@@",
"@@@@@@@@@@@@@@@@@@@@@@@@@@@@@@@@@@@@@@@@@@@@@@@@@@@@@@@@@@@@@@@@"
};
