/* XPM */
static char *_103_c1ff5e90cae3bbacd92bbeb4fc1d4d48e91a21e668c5ca120e916f563a5e7777[] = {
/* columns rows colors chars-per-pixel */
"64 64 10 1 ",
"  c black",
". c gray33",
"X c #FC5454",
"o c #FCFC54",
"O c #FF0000",
"+ c #00A8A8",
"@ c #54FCFC",
"# c gray66",
"$ c gray99",
"% c None",
/* pixels */
"%%%%%%%%%%%%%%%%%%%%%%%%%%%%%X%%%%%%%%%%%%%%%%%%%%%%%%%%%%%%%%%%",
"%%%%%%%%%%%%%%%%%%%%%%%%%X%%%XX%X%%%X%%%%%%%%%%%%%%%%%%%%%%%%%%%",
"%%%%%%%%%%%%%%%%%%%%%X%%%%%%XX%X%%XX%%%%%%%%%%%%%%%%%%%%%%%%%%%%",
"%%%%%%%%%%%%%%%%%%%%%%%X%%X%%XXoOX%%%X%%%%%%%%%%%%%%%%%%%%%%%%%%",
"%%%%%%%%%%%%%%%%%%%%%%X%X%XXOOOXOO%XXX%%%%%%%%%%%%%%%%%%%%%%%%%%",
"%%%%%%%%%%%%%%%%%%%%%X%%XX%XOXOoXXXX%XX%X%%%%%%%%%%%%%%%%%%%%%%%",
"%%%%%%%%%%%%%%%%%%%%%%X%XXOXOoO$OOOoXOXX%%%%%%%%%%%%%%%%%%%%%%%%",
"%%%%%%%%%%%%%%%%%%%%X%XXXOOOXoo$oXOXXOX%X%%%%%%%%%%%%%%%%%%%%%%%",
"%%%%%%%%%%%%%%%%%%%%%X%OXOoXOOoooOOXoOOOX%%%%%%%%%%%%%%%%%%%%%%%",
"%%%%%%%%%%%%%%%%%%%%XXX%XOoOoooXooXooOOX%%%%%%%%%%%%%%%%%%%%%%%%",
"%%%%%%%%%%%%%%%%%%%X%%X%XOoO$oXooooXoO%XX%%%%%%%%%%%%%%%%%%%%%%%",
"%%%%%%%%%%%%%%%%%%%%%X%XOOo$ooo$X$oooOX%%%%%%%%%%%%%%%%%%%%%%%%%",
"%%%%%%%%%%%%%%%%%%%%XX%OOXo$oo$Xo$oooOOOX%%%%%%%%%%%%%%%%%%%%%%%",
"%%%%%%%%%%%%%%%%%%                          %%%%%%%%%%%%%%%%%%%%",
"%%%%%%%%%%%%%%%%%% #######################$ %%%%%%%%%%%%%%%%%%%%",
"%%%%%%%%%%%%%%%%%%   .. ...........#@$ ..   %%%%%%%%%%%%%%%%%%%%",
"%%%%%%%%%%%%%%%%%%%% ## ...########@@$ #$ %%%%%%%%%%%%%%%%%%%%%%",
"%%%%%%%%%%%%%%%%%%%% ## ...#########@@ #$ %%%%%%%%%%%%%%%%%%%%%%",
"%%%%%%%%%%%%%%%%%%%% ## ....#######@@$ #$ %%%%%%%%%%%%%%%%%%%%%%",
"%%%%%%%%%%%%%%%%%%%% ##. ...#######@@ .#$ %%%%%%%%%%%%%%%%%%%%%%",
"%%%%%%%%%%%%%%%%%%%% ##.   ...###@$   .#$ %%%%%%%%%%%%%%%%%%%%%%",
"%%%%%%%%%%%%%%%%%%%% ##. %   ...@   % .#$ %%%%%%%%%%%%%%%%%%%%%%",
"%%%%%%%%%%%%%%%%%%%% ##. %%%      %%% .#$ %%%%%%%%%%%%%%%%%%%%%%",
"%%%%%%%%%%%%%%%%%%%% $#. %%% ..# %%%% .#$ %%%%%%%%%%%%%%%%%%%%%%",
"%%%%%%%%%%%%%%%%%%%% $#. %%% ..# %%%% .#$ %%%%%%%%%%%%%%%%%%%%%%",
"%%%%%%%%%%%%%%%%%%%% $#. %%% ..# %%%% .#$ %%%%%%%%%%%%%%%%%%%%%%",
"%%%%%%%%%%%%%%%%%%%% $#. %%% ..# %%%% .#$ %%%%%%%%%%%%%%%%%%%%%%",
"%%%%%%%%%%%%%%%%%%%% $#. %%% ..# %%%% .#$ %%%%%%%%%%%%%%%%%%%%%%",
"%%%%%%%%%%%%%%%%%%%% $#. %%% ..# %%%% .#$ %%%%%%%%%%%%%%%%%%%%%%",
"%%%%%%%%%%%%%%%%%%%% $#. %%% ..# %%%% .#$ %%%%%%%%%%%%%%%%%%%%%%",
"%%%%%%%%%%%%%%%%%%%% $#. %%% ..# %%%% .#$ %%%%%%%%%%%%%%%%%%%%%%",
"%%%%%%%%%%%%%%%%%%%% $#. %%% ..# %%%% .#$ %%%%%%%%%%%%%%%%%%%%%%",
"%%%%%%%%%%%%%%%%%%%% $#. %%% ..# %%%% .#$ %%%%%%%%%%%%%%%%%%%%%%",
"%%%%%%%%%%%%%%%%%%%% $#. %%% ..# %%%% .#$ %%%%%%%%%%%%%%%%%%%%%%",
"%%%%%%%%%%%%%%%%%%%% $#. %%% ..# %%%% .#$ %%%%%%%%%%%%%%%%%%%%%%",
"%%%%%%%%%%%%%%%%%%%% $#. %%% ..# %%%% .#$ %%%%%%%%%%%%%%%%%%%%%%",
"%%%%%%%%%%%%%%%%%%%% $#. %%% ..# %%%% .#$ %%%%%%%%%%%%%%%%%%%%%%",
"%%%%%%%%%%%%%%%%%%%% $#. %%% ..# %%%% .#$ %%%%%%%%%%%%%%%%%%%%%%",
"%%%%%%%%%%%%%%%%%%%% $#. %%% ..# %%%% .#$ %%%%%%%%%%%%%%%%%%%%%%",
"%%%%%%%%%%%%%%%%%%%% $#. %%% ..# %%%% .#$ %%%%%%%%%%%%%%%%%%%%%%",
"%%%%%%%%%%%%%%%%%%%% $#. %%% ..# %%%% .#$ %%%%%%%%%%%%%%%%%%%%%%",
"%%%%%%%%%%%%%%%%%%%% $#. %%% ..# %%%% .#$ %%%%%%%%%%%%%%%%%%%%%%",
"%%%%%%%%%%%%%%%%%%%% $#. %%% ..# %%%% .#$ %%%%%%%%%%%%%%%%%%%%%%",
"%%%%%%%%%%%%%%%%%%%% $#. %%% ..# %%%% .#$ %%%%%%%%%%%%%%%%%%%%%%",
"%%%%%%%%%%%%%%%%%%%% $#. %%% ..# %%%% .#$ %%%%%%%%%%%%%%%%%%%%%%",
"%%%%%%%%%%%%%%%%%%%% $#. %%% ..# %%%% .#$ %%%%%%%%%%%%%%%%%%%%%%",
"%%%%%%%%%%%%%%%%%%%% $#. %%% ..# %%%% .#$ %%%%%%%%%%%%%%%%%%%%%%",
"%%%%%%%%%%%%%%%%%%%% $#. %%% ..# %%%% .#$ %%%%%%%%%%%%%%%%%%%%%%",
"%%%%%%%%%%%%%%%%%%%  $#.     ..#      .#$  %%%%%%%%%%%%%%%%%%%%%",
"%%%%%%%%%%%%%%%%%%% $$$$$$$$$$$$$$$$$$$$$$ %%%%%%%%%%%%%%%%%%%%%",
"%%%%%%%%%%%%%%%%%%% .####################$ %%%%%%%%%%%%%%%%%%%%%",
"%%%%%%%%%%%%%%%%%%% .####################$ %%%%%%%%%%%%%%%%%%%%%",
"%%%%%%%%%%%%%%%%%%% .....................$ %%%%%%%%%%%%%%%%%%%%%",
"%%%%%%%%%%%%%%%%%%%  $#.     ..#      .#$  %%%%%%%%%%%%%%%%%%%%%",
"%%%%%%%%%%%%%%%%%%%% $#. %%% ..# %%%% .#$ %%%%%%%%%%%%%%%%%%%%%%",
"%%%%%%%%%%%%%%%%%%%% $#. %%% ..# %%%% .#$ %%%%%%%%%%%%%%%%%%%%%%",
"%%%%%%%%%%%%%%%%%%%% $#. %%% ..# %%%% .#$ %%%%%%%%%%%%%%%%%%%%%%",
"%%%%%%%%%%%%%%%%%%%% $#. %%% ..# %%%% .#$ %%%%%%%%%%%%%%%%%%%%%%",
"%%%%%%%%%%%%%%%%%%   $#.     ..#      .#$    %%%%%%%%%%%%%%%%%%%",
"%%%%%%%%%%%%%%%%  +$$$$$$$$$$$$$$$$$$$$$$$@$@ %%%%%%%%%%%%%%%%%%",
"%%%%%%%%%%%%%%% ++###########################$ %%%%%%%%%%%%%%%%%",
"%%%%%%%%%%%%%%% +............................@ %%%%%%%%%%%%%%%%%",
"%%%%%%%%%%%%%%%+##############################$%%%%%%%%%%%%%%%%%",
"%%%%%%%%%%%%%%%%%%%%%%%%%%%%%%%%%%%%%%%%%%%%%%%%%%%%%%%%%%%%%%%%"
};
