/* XPM */
static char *_9d0a656e72c499a94507e95787688e9WQXbZ8CDmrMboWaw[] = {
/* columns rows colors chars-per-pixel */
"64 64 5 1 ",
"  c black",
". c gray33",
"X c #A85400",
"o c #00A800",
"O c #54FC54",
/* pixels */
"XXXXX   .XXXXXXXXX      .XXXXXXX      XXXXXXXXXXXXXXXXXXXXXXX XX",
"........   .......XX   .........X     ...................... ...",
"...........  .......XX .........X    ....................... ...",
"              .       X                                         ",
"XXXXXXXXXXXXXXXXXXXXXXX XXXXXXXXX XXXXXXXXXXXXXXXXXXXXXXXXXXXXXX",
".......................X .......   .............................",
"                        X                                       ",
"                                                                ",
"XXX    ........... .. ....XX          ............X   ....X X...",
"..   ............ .... .oo.X                                ....",
".       .       . ... oo.oo                  . ...........      ",
"   ..XX ..XXXXX     X.ooooOXXXXXX.    .XXXX             .. XXXXX",
"  ...... ......X       .ooO.......   .....X    .XXXXXXX .. .....",
" ....... .......XX       .o...............X    .......X . X.....",
"          .             .................X      .......X     .  ",
"XXXXXXXXX .XXXXXXXX.   ..                        ......X XXX. XX",
"......... ...........  .........  ... .....              ... ...",
"...... ... ........... . ......X  ... .....       .......... ...",
"....... ... .......... ..  .....  .X ..           ..... .  .. ..",
"........ ... ......... ....  ..oo.. ..             ... ..oo... .",
"                       .     .oo.oo                   . ..ooo.. ",
"                       .     .oooOo  ......          ...   .oo. ",
"                       ..    .oOOo       ....       ..    .  .. ",
"........... XXXX        .XXX .oo  . ..... ....XXXX ..XXXX . ....",
"........... ....XX      ....     . . ......... .. ......X  .....",
"........... ......X      ...... . ..   .....  ... .....X . .....",
"            .......X      .....  .....      .... . ....X .      ",
"XXXXXXXXXXX           ..   .    .......          .....   XXX XXX",
".........................  .... . .......X    . .. X .. ...X ...",
".........................  ... .. .......X    . . .X  ....X ....",
"........ XXXXXXXXXXX..  ..  .  .  ........X    .. .X    ..X ....",
".......  ..........X.. ...    .. .........X   .. ...X  ..X  ....",
"......  ............X. .... . .. ..........X .. ....X  ..X .....",
"......  ............X. .... . .. ..........X . .....X  .X ......",
"          .oo.oo. .     ...   .. .    oooo  ..          X       ",
"......... oo.ooOo. .     .    ..  X  ...ooo...XXXX. ....X ......",
"......... oo.ooOo.. ..X       .. o. oooo.oo ......X ...X .......",
"       .. ooooOo .  ...X      ...o. oOoooooo ......X            ",
"........   ooOo  .. ....X      .o.. oOOooooo .......XXX     ....",
" ...... ..  Oo.. .. ....X      .o   .ooOOOOo           XX.  ....",
"  .........  ...  .. ....      ....   .ooooo ............X  ....",
"     ......X      .             .... .       ..     .....X  ....",
"                   .XXXX. .          . ...XX..X.XX. .....X    ..",
"             .....  ....X ..    .... . .... ......X     ...   ..",
"XX.         ........ ....X ... ....     ... ......X .X   ..X ..X",
"..X         ........ ....X   . ... ...   .. ...... ...... .. ...",
"..X         .......  ....X     ........    .......    .oo.oo....",
"..X         .....     .      o ........  ........     oo.ooOo...",
"..X         ......  .. .... oo ........        .  ..  oo.ooOo...",
"            ... .. ..  .... oo  ......            . ..ooooOo .. ",
"XXX               ... .     oooo                  .... ooOo   ..",
"....         .XXXX  .. ooo.    .  ...     .        ...  oo ..  .",
"....  o.  .........X   .ooo.   .    .    .                ....  ",
"... oo.o   ........X .oo.ooo X  .  . ......              ...... ",
" .. .ooo      .....X oOoo.ooo   .  . ..................   ......",
". ..    . .......... .oOOooOo . .  .     .              . ......",
"   .  ... .... .....X .ooOOOo..  . .   ....  XXXX ....X    ..   ",
"    ..          ..      .oooo .  . . .... .. ...X .....XX  ..   ",
"    ...          ...  ..      ..  .. ..... ......X ....X   ..   ",
"...  .........   ..  .. ....X ..   .. ..... .....X ....X  ......",
"    .. . .          ..  .          ..         .   ...... ..     ",
"XXX ..X .XXXXXXX X ..X ...XXXXXXXX  .. XXXXX .......XXX .. XXXXX",
".. .... .......X . ... . .........  ....   ... X   ..  .. ......",
". ...... ......X  ... ... .........  .......  .X .    .. ......."
};
