/* XPM */
static char *b4324fdbf719419eb524c5ea6876b790VYA6sEjScyzWBSF0[] = {
/* columns rows colors chars-per-pixel */
"64 64 3 1 ",
"  c black",
". c gray33",
"X c #A85400",
/* pixels */
"XXXXXXXXXXXXXXXXXXXXXXXXXXXXXXXX   XXXXXXXXXXXXXXXXXXXXXXXXXXXXX",
"................................X ..............................",
"................................X ..............................",
"                                                                ",
"XXXXXXXXXXXXXXXXXXXXXXXXXXXXXXXXX XXXXXXXXXXXXXXXXXXXXXXXXXXXXXX",
"................................   .............................",
"                                                                ",
"                                                                ",
"..........................XX  ....................X   ....X X...",
"...........................X                                ....",
"                ..                          ..............      ",
"XXXXXXXXXXXXXXX     XXXXXXXXXXXXXXXXXXXXXXX .           .. XXXXX",
"...............X     .....................X . XXXXXXXXX .. .....",
"................XX   .....................X . ........X . X.....",
"                     ....................X . ..........X        ",
"XXXXXXXXXXXXXXXXXXX.                       . ..........X XXXXXXX",
"................................  ..........             .......",
"...............................X  ............... ..............",
"...............................X  ....XXXXXXXXXXX ..............",
"..............................X   ...............X .............",
"                               .   ..............X              ",
"                              ...                    ..         ",
"               .                                          .     ",
"........... XXXXXXXXXXXXXXXXXXXX......  XXXXXXXXXXXXXXXXX . ....",
"........... ................... ...... .................X  .....",
"........... ................... ...... ................X . .....",
"            ................... ......  ...............X .      ",
"XXXXXXXXXXX                    ........                  XXXXXXX",
"............................ ............X    ....XX    ........",
"...........................X ............X    .....X    ........",
"........ XXXXXXXXXXX......X  .............X   .....X    ........",
".......  ..........X.....X   .............X   ......X  .........",
"......  ............X...X   ...............X  ......X  .........",
"......  ............X..XX   ...............X .......X  .........",
"                         .                                      ",
"....................   .XXXXXXXXXXXXXXXXXXXXXXXXXX. ............",
".....................  ...........................X ............",
"                       ............................X            ",
"............X ........ .............................XXX     ....",
"............X ........                                 XXX  ....",
"...........X ............................ ...............X  ....",
"...........X              ...............           .....X  ....",
"            .XXXXXXXXXXXX                .XXXXXXXXX .....X      ",
"         ...............X    .....................X             ",
"XXXXXXX. ................X   .....................X .XXXXXXX XXX",
"........ ................X   ....................X ........X ...",
"......... ...............X    ...................X          ....",
".........                  .  ...................X        ......",
"......... ............ .....                       XXXXXXX .....",
"                       ....................   ..........X       ",
"XXXXX                 ....................X   .........X .XXXXXX",
"..... ...  XXXXXXXXX ....................X   ..........X .......",
".... .... .........X .                       ..........X .......",
".... .... .........X  XXXXXXXX ...  .......             ........",
".... .... .........X ........X ...  ................... ........",
"... ..... ..........X         ....                      ........",
"   ...... ..........X .....X ......          XXXX ....X         ",
"                      .....X  .............. ...X .....XX       ",
"                 ...........X ............. .....X ....X        ",
"..............   ...........X ............. .....X ....X .......",
"                                                                ",
"XXXXXXXXXXXXXXXX XXXXXXXXXXXXXXXXXXXXXXXXXXXXXXX XXXXXXXXXXXXXXX",
"...............X ..............................X ...............",
"...............X ..............................X ..............."
};
