/* XPM */
static char *result[] = {
/* columns rows colors chars-per-pixel */
"64 64 5 1 ",
"  c black",
". c gray33",
"X c #A85400",
"o c #00A800",
"O c #54FC54",
/* pixels */
"XXXXXXXXXXXXXXXXXXXXXXXXXXXXXXXX   XXXXXXXXXXXXXXXXXXXXXXXXXXXXX",
"................................X ..............................",
"................................X ..............................",
"          ooo.                                                  ",
"XXXXXXXX..oooO.XXXXXXXXXXXXXXXXXX XXXXXXXXXXXXXX.....XXXXXXXXXXX",
".........   .o..................   ...............ooo...........",
"   ....                                        .oo..oo          ",
"     ..                                       ..oooooo.         ",
"..... ............ .. ....XX  ..... .. ........ ooOoooO...X X...",
"...... .......... .... .oo.X       ....     ..  ..oOOOo     ....",
"        .       . ... oo.oo        .... .  .....     .....      ",
"XXXXXXX ..XXXXX     X.ooooOXXXXXXX ..  X... .           .. XXXXX",
"........ ......X     . .ooO.......   .. ..X . XXXXXXXXX .. .....",
"........ .......XX   ..  .o............ ..X . ........X   X.....",
"          .          .. .............. ..X . ..........X.    .  ",
"XXXXXXXXX ..XXXXXXX.   ..              .   . ..........X .X.. XX",
"......... ..   ....... .........  ... .. ...             ... ...",
"....... ... ... ...... . ......X  ... . ......... ...... .   ...",
"...... ooo.. ... ..... ..  ....X  .. .. XXXXXXXXX ..... .  .. ..",
"..... oo..oo.   ...... ....  ..oo.. .. ..........X ... .. .... .",
"     oo..ooo.          .     .oo.oo     .........X    . ....... ",
"     oo.ooOo.          .     .oooOo  ......          ...   .... ",
"     ooooOo.   .       ..    .oOOo       ....       ..    .  .. ",
".... oOOOo  .XXXXXXXXX  .XXX .oo  . ..... ....XXXX ..XXXX . .   ",
".....       ........... ....     . . ......... .. ......X  .....",
"........... .     .....  ...... . ..   .....  ... .....X . .....",
"             ...   .....  .....  .....      .... . ....X .      ",
"XXXXXXXXXXX ... ... ....   .    ..oo...          .....   XXXXXXX",
"........... ....... ...... .... .oo.oo...X    . .. X .. ........",
".......... .......   ..... ... ..oooOo...X    . . .X  ..........",
"........ X ...... .oo   ..X .  . oOOo.....X    .. .X    ........",
".......  . ..... o..oo ...  . ..   .......X   .. ...X  .........",
"......  ...      ooo.O .... . ..  .........X .. ....X  .........",
" .....  .. .... . ooOO .... . .. ..........X . .....X  .........",
" ..       .oo.oo. .     ...   .. .    oooo  ..                  ",
". ....... oo.ooOo. .  ooo.XXX ..  X  ...ooo.. XXXX. ............",
". ....... oo.ooOo.. ....oo... .. o. oooo.oo . ....X ............",
"   .   .. ooooOo .  oooo.o... ...o. oOoooooo ......X            ",
".. ..... . ooOo  .. ooooooo... .o.. oOOooooo .......XXX     ....",
".. .... ... Oo.. .. .oOoooo.   .o   .ooOOOOo           XXX  ....",
"... .. ....X ...  .. .oOOOo... .....  .ooooo ............X  ....",
"... .. ....X      .    ........ .... .       ..     .....X  ....",
"            .XXXXX..XXXXX .          . ...XX . .XXX .....X    ..",
"      oo........    ....X .. .. .... . ...... . ..X     ...   ..",
"XXX  .ooo...... oo.. ....X ... ....     ..... . ..X .XXX ..X .XX",
".. .oo.Oo..... oo.o. ....X   . ... ...   ..... . . ...... .. ...",
".. oooooOo.... ooO.  ....X     ........    .... ..    .oo.oo....",
".. .ooooOo.    oO     .    . o ........ ....... .     oo.ooOo...",
"... .oooOo..... ..  .. .... oo ........           ..  oo.ooOo...",
"      .oOo.     .. ..  .... oo  ......  ...   ... . ..ooooOo .. ",
"XXXXX     ...     ... .     oooo       ...X   ... .... ooOo   ..",
".....   . ....XXXX  .. ooo.    .  ... ...X   ..... ...  oo ..  .",
"....  o.  .........X   .ooo.   .    .        ......       ....  ",
"... oo.o   ........X .oo.ooo X  .  . ......              ...... ",
" .. .ooo      .....X oOoo.ooo   .  . ... .............. . ......",
". ..    . .......... .oOOooOo . .  .     .              . ......",
"   . .... .... .....X .ooOOOo .  . .     ..  XXXX ....X    ..   ",
"    ..          .       .oooo .  . . .... .. ...X .....XX  ..   ",
"     ..          ...  ..      ..  .. ..... ......X ....X   ..   ",
".... .........   ..  .. ....X ..   .. ..... .....X ....X  ......",
"     . .            ..  .          ..         .   ....   ..     ",
"XXX ..X .XXXXXXX X ..X ...XXXXXXXX  .. XXXXX .......XXX .. XXXXX",
".. .... .......X . ... . .........  ....   ... X   ..  .. ......",
". ...... ......X  ... ... .........  .......  .X .    .. ......."
};
