/* XPM */
static char *result[] = {
/* columns rows colors chars-per-pixel */
"64 64 6 1 ",
"  c black",
". c gray33",
"X c #A80000",
"o c #A85400",
"O c #FC5454",
"+ c #0000A8",
/* pixels */
"oooooooooooooooooooooooooooooooo + ooooooooooooooooooooooooooooo",
"................................o ..............................",
"................................o ..............................",
"                                                                ",
"ooooooooooooooooooooooooooooooooo oooooooooooooooooooooooooooooo",
"................................   .............................",
"                                                                ",
"                                                                ",
"..........................oo  ....................o   ....o o...",
"...........................o                                ....",
"                ..                          ....O.O.O.....      ",
"ooooooooooooooo     ooooooooooooooooooooooo .. .. OO...O.. ooooo",
"...............o     .....................o .     O   . O. .....",
"....O...........oo   .....................o .           O o.....",
"                     ....................o .                    ",
"ooooooOOooooooooooo.                       .           O ooooooo",
".........O............ .........  .......... .     . .   OO.....",
"....     XO....O....  ......O..o  ............... .....O  ......",
".........  OO...OO.   .....OO..o  ....ooooooooooo .......O  ....",
"......... . XOO..OO  . O...XO.o   ....O.....  ...o ......O......",
"   . ....  .  ..        ... .. .   ..OO    . . ..o              ",
"                              ...                    ..         ",
"                                                          .     ",
".... oo o o.                  o . . .                     . oo..",
"...........                     ..O...                     .....",
"............               .  . .OO...  .                . .....",
"            .             .     OX....   .               .      ",
"ooooooooooo   .      .    ...  OX....                    ooooooo",
".............XOO     ... ... OOOX.... ..oo              OO......",
"..............XO   . OO....o OOX.........o              OOO.....",
"........ ooooooo  oo XOOO.o XOOOOOO.......o            OOOOOO...",
".......  .....    .o..XXOo XXOOOXX.OO.O...o            OX OXX...",
"......  ..... ..OO..o..Xo XXO.OX...........o          OX.   ....",
"......  ............o..oo  X.OO............o .    .O OO.........",
"                         . XOOO                   OO XOO        ",
"....................   .oooooXOOoooooooooooooooooOOO..XO........",
".....................  .......XO.. ...............o ...O........",
"                       .......XO...  .............Oo            ",
"............o ........ .......XO.....  ...........O.oooO     ...",
"......  ....o ........                           O     ooo  ....",
"....  .....o ...........XOO....   ....... ......O........o   ...",
"... .......o              XO...O.. . .. . . . ....  .....o  ....",
"            .ooooooooOooo   ... .            ..   o .....o      ",
"         ..........XOO..o  .                                    ",
"ooooooo. ........OOOOXOOOo                          .ooooooo ooo",
"........ ............XOO.o                         ........o ...",
"......... ..........OOOO.o                                  ....",
"......O..              OO  . o                            ......",
".....XOO. ............ XOOOO .o.  o     o.      .o..oooooo .....",
"           ... . . ..  .OOXOOOOOOo.    ..o.   o.........o       ",
"ooooo    XOO          .OOXXOXX.O   o .o...o   .........o .oooooo",
"..... o. OX          ..O..XO..  .XOOO.O..o   ..........o .......",
".... ...o            .     OO                ..........o .......",
".... ...OX            oooooXOO ...  .......               ......",
".... ...XO           ......XOO ...  .. .. ............. .. . ...",
"... ....XO          .       O ....                ...   ...  ...",
"   .....X.           ......oO......          oo o     o         ",
"          .  o    o. ......o O.....  ..  ...         .          ",
"          . ...  o..........oO..   ......                       ",
"..............   ...........oO. ...........              .......",
"                                                                ",
"oooooooooooooooo ooooooooooooooooooooooooooooooo ooooooooooooooo",
"...............o ..............................o ...............",
"...............o ..............................o ..............."
};
