/* XPM */
static char *_2126_7ded3d08ece1eae3a81ded72630cebc691173ed8316c04880f0e56ed59fc148f[] = {
/* columns rows colors chars-per-pixel */
"64 64 6 1 ",
"  c black",
". c gray33",
"X c #A85400",
"o c #FCFC54",
"O c #54FCFC",
"+ c gray99",
/* pixels */
"XXXXXXXXXXXXXXXXXXXXXXXXXXXXXXXXXXXXXXXXXXXXXXXXXXXXXXXXXXXXXXXX",
"XXXXXXXXXXXXXoooooooooXXXXXXXXXXXXXXXXXXXXXXooooooooXXXXXXXXXXXX",
"XXXXXXXXXooooooooooooooooooooooXXXXXXXXXXooooooooooooooXXXXXXXXX",
"XXXXXXXooooooooooooooXXXXXXXXXooooooooooooooooooooooooooXXXXXXXX",
"XXXXXooooooooooooooooooooooXXXXXXXooooooooXoXooooooooooooXXXXXXX",
"XXXXoooooooooooooOOOOOooooooooXXXXXXXXXXXXooooooooooooooooXXXXXX",
"XXXooooooooooooOOOOOOOOOOOooooooooXXXXXXooooooooooooooooooXXXXXX",
"XXXooooooooooOOOOOooooooooOOoooooooooooooooooooooooooooooooXXXXX",
"XXooooooooooOOOOoOOOOOOOooooOOOOoooooooooooooooooooooooooooXXXXX",
"XXoooooooooOOOOOOOOOOOOOOOooooOOOOOOooooOOOOOOOOOOoooooooooXXXXX",
"XXoooooooooOOOOOOOOOOOOOOOOOOoooooOOOOOOOOOOOoooOOOOooooooooXXXX",
"XXooooooooOOOOOOOOOOO+++++++OOOOOoooooooOOooooooooOOOoooooooXXXX",
"XXooooooooOOOOOOOOO++++++++++++OOOOOOOOOOOOOOOOooooOOoooooooXXXX",
"XXXoXoooooOOOOOOOO+++OOOOOOO+++++OOOOOOOOOOOOOOOOoooOOooooooXXXX",
"XXXoXoooooOOOOOOO++OO+++++++OOO+++++OOOOOOOOOOOOOooooOooooooXXXX",
"XXXXoXooooOOOOOO++O+++OOOOO++++OO+O++OO+++++OOOOOOoooOooooooXXXX",
"XXXXoXXoooOOOOOO+O++OOOOOOOOO+++++++++++++++++OOOOOooOooooooXXXX",
"XXXXooXoooOOOOOO+O++OOO++++OOOOO+++++++++++++++OOOOooOooooooXXXX",
"XXXXXoXXooOOOOOO+++OOO+++++++OOOOOOOOOOOOO+++++OOOOoOOooooooXXXX",
"XXXXXoXXoooOoOOO+O+OO++++++++++OOO+++++OOOO++++OOOooOoooooooXXXX",
"XXXXXooXoooOoOOO++++O+++++++++++++++OOO++OOO++++OOoOOoooooooXXXX",
"XXXXXooXXooOoOOO++++OO+++++++++++++O++OO+OOO+O++OOOOooooooooXXXX",
"XXXXXooXXooOooOOO++++O+++++++++++++++++O+OOO++O+OoOOooooooooXXXX",
"XXXXXooXXooOooOOOO+++OO++++++++++++++++O+OO+++O++OOOooooooooXXXX",
"XXXXXooXXooOooOOOOO+++O++++++oo+o++++++++OO++++O+OOoooooooooXXXX",
"XXXXXooXoooOoOOOOOO+++OO++ooo+oooooo++++OO+++++O+OOooooooXooXXXX",
"XXXXXooXoooOoOOOOOO++++O+o++oo.  .ooo+++OO+++++O+OOooooooXooXXXX",
"XXXXXoXXoooOoOOOOOO+O++Oo++oo.    .ooo++OO++++O++OOooooooXooXXXX",
"XXXXXoXXoooOoOOOOOO+O++Oo+ooo.    .ooo++OOO+++O+OOOoooooXXooXXXX",
"XXXXooXooooOoOOOOOO+O++Oo+ooo.    .o+oo+OOOO++++OOOoooooXXooXXXX",
"XXXXoXXooooOOOOOOO++O+OOo++ooo.  .oo+oo++OOO++++OoOoooooXXooXXXX",
"XXXXoXXooooOOOOOOO++++OOOo+oooo  ooo+oo++OOO++++OoOOooooXXooXXXX",
"XXXXoXXoooOOOOOOOO+++OOOOo+ooo.  .o+ooo++OOO+++OOoOOooooXXooXXXX",
"XXXXoXXoooOOOOOOOO+++OOO++oooo.  .o+ooo++OOO++OOOoOOooooXXXoXXXX",
"XXXooXooooOOOOOOO+++OOO+++oooo.  .oo+oo+OOO+++OOOoOOOoooXXXooXXX",
"XXXoXXooooOOOOOOO+++OOO++oooo.    .ooo++OO+++OOOOoOOOooooXXooXXX",
"XXXoXXooooOOOOOOO+++OOO++oooo.    .ooo+OO++++OOOOoOOOooooXXooXXX",
"XXooXoooooOOOOOOO+++OO+++o+oo      oo+oOO+++OOOOOooOOooooXXXoXXX",
"XXoXXoooooOoOOOOO+++OO+++o+o+ooooooo++oO++++OOOOOooOOoooooXXooXX",
"XXoXXooooOOoOOOO++++OO++++o++++oooo+oo+O++++OOOOOOoOOOooooXXooXX",
"XXoXXooooOOoOOOO+O++OO+++++++++++++++++O+++++OOOOOooOOooooXXooXX",
"XXoXooooOOooOOO++O++OO+++++++++++++++++O+++++OOOOOOoOOooooXXooXX",
"XooXooooOOoOOOO+OO++OOO++++++++++++++++O++++++OOOOOoOOoooooXooXX",
"XoXXooooOOoOOO++O++++OO++++++++++++++++OO++++++OOOOoOOoooooXooXX",
"XoXXooooOOoOOO+OO++++OOO+++++++++++++++OO+++++++OOOoOOoooooXooXX",
"XoXXooooOOoOOO+OO++++OOOOOOOOO++++++++OOOO++++++OOOoOOooooooooXX",
"XoXXooooOOoOOO++O+++++OOOOOOOOOOO++++OOOOO+++++++OOOoOooooooooXX",
"XoXXooooOOoOOO++OO+++++OOOO++++OOOOOOOOOOO+++++++OOOoOoooooXooXX",
"XoXXooooOOoOOOO+OO++++++++++++++OOOOOOOOOO+++++++OOOOOooooooooXX",
"XooXooooOOoOOOO++OO+++++++++++++++OOOOOOO++++++++OOOOOoooooooXXX",
"XooXooooOOoOOOOO+++OO+++++++++++++++OOO++++++++++OOOoOoooooooXXX",
"XooXooooOOOoOOOOOOO+++++OOO+++++++++++++++++++++OOOOoOoooooooXXX",
"XXoXoooooOOoOOOOOOOOOOOOOOOOOOO+++++++++++++++OOOOOooOoooooooXXX",
"XXoooooooOOooOOOOOOOOOOOOOOOOOOOOOOOOO+++++OOOOOOOoooOoooooooXXX",
"XXooooooooOOooOOOOOOOOooooooooooooOOOOOOOOOOOOOOOoooOoooooooXXXX",
"XXoooooooooOOOooooOoOOOOOOOOOOOOoooooooOOOOOOOoooooOOoooooooXXXX",
"XXXoooooooooooOOOOOOOOOOoooooooOOOOOoooooooooooooOOooooooooXXXXX",
"XXXooooooooooooooooooooooooooooooooOOOOOOooooooOOOooooooooXXXXXX",
"XXXXooooooooooooooooooooooooooooooooooOOOOOOOOOooooooooooXXXXXXX",
"XXXXXoooooooooooooooooooooooooooooooooooooooooooooooooooXXXXXXXX",
"XXXXXXXoooooooooXXXXXXXXooooooooooooooooooooooooooooooXXXXXXXXXX",
"XXXXXXXXXooooooooooooXXXXXXXXXXXXXXXXXXXXooooooooXXXXXXXXXXXXXXX",
"XXXXXXXXXXXXXXXXXoooooooooooooooooooooooooXXXXXXXXXXXXXXXXXXXXXX",
"XXXXXXXXXXXXXXXXXXXXXXXXXXXXXXXXXXXXXXXXXXXXXXXXXXXXXXXXXXXXXXXX"
};
