/* XPM */
static char *_0465_45f56387d82c10126d70352ef62a3f54066e40bf3ef7b547b3118429c28e2531[] = {
/* columns rows colors chars-per-pixel */
"64 64 4 1 ",
"  c #A80000",
". c #FC5454",
"X c #FCFC54",
"o c None",
/* pixels */
"oooooooooooooooooooooooooooooooooooooooooooooooooooooooooooooooo",
"oooooooooooooooooooooooooooooooooooooooooooooooooooooooooooooooo",
"oooooooooooooooooooooooooooooooooooooooooooooooooooooooooooooooo",
"oooooooooooooooooooooooooooooooooooooooooooooooooooooooooooooooo",
"oooooooooooooooooooooooooooooooooooooooooooooooooooooooooooooooo",
"oooooooooooooooooooooooooooooooooooooooooooooooooooooooooooooooo",
"oooooooooooooooooooooooooooooooooooooooooooooooooooooooooooooooo",
"oooooooooooooooooooooooooooooooooooooooooooooooooooooooooooooooo",
"oooooooooooooooooooooooooooooooooooooooooooooooooooooooooooooooo",
"oooooooooooooooooooooooooooooooooooooooooooooooooooooooooooooooo",
"oooooooooooooooooooooooooooooooooooooooooooooooooooooooooooooooo",
"oooooooooooooooooooooooo      oooooo  oooooooooooooooooooooooooo",
"oooooooooooooooooooooo     oooooooooo   oooooooooooooooooooooooo",
"ooooooooooooooooooooo     oo      oooo   ooooooooooooooooooooooo",
"ooooooooooooooooooooo   oo           oo   oooooooooooooooooooooo",
"oooooooooooooooooooo   oo             oo  oooooooooooooooooooooo",
"oooooooooooooooooooo  oo    . . ..    oooooooooooooooooooooooooo",
"ooooooooooooooooooo   o   .. . . . .   ooo.   oooooooooooooooooo",
"oooooooooooooooooo     o . .. . . . .  oo.    oooooooooooooooooo",
"oooooooooooooooooo   oooo .... . . .  o o .  ooooooooooooooooooo",
"oooooooooooooooooo  oooooo  XXXXXX.. .   .  .ooooooooooooooooooo",
"ooooooooooooooooooooooooo  X ooooo.XXX.  ooooo  oooooooooooooooo",
"oooooooooooooo   o  o  .X  XXo...oo.XXX.     oo  ooooooooooooooo",
"ooooooooooooo   o  . .. .XXX..XXX.oooXXX.        ooooooooooooooo",
"oooooooooooo   oo   .. XXXXooXooooooooXX . .   ooooooooooooooooo",
"oooooooooooo   o   .. XXXXXooooooooooo.X. . .   oooooooooooooooo",
"oooooooooooo  oo  . ..X.XoXooooooooo.ooX.. .    oooooooooooooooo",
"ooooooooooo   o    . .X.XoXooooooooo..oX... .   oooooooooooooooo",
"ooooooooooo   o   . ....ooooooooooooX.oX.. .    oooooooooooooooo",
"ooooooooooo   o    ...X.XoooooooooooX.o.. . .    ooooooooooooooo",
"ooooooooooo   o    . ...XXoooooooooXXoo. . .     ooooooooooooooo",
"ooooooooooo   o   . ..X..XXXooooooXX.o... . .    ooooooooooooooo",
"oooooooooooo  o   . ..XXX..Xoooooo..oo. .... .   ooooooooooooooo",
"oooooooooooo  oo    ...XXX..ooooooooo. o . ..   oooooooooooooooo",
"ooooooooooooo oo     ...XXX..XXXXX.X.oooo . .   oooooooooooooooo",
"oooooooooooooooooo  oo....XXXXXX.X..o  oo      ooooooooooooooooo",
"ooooooooooooooooo   ooo.........X. o   ooo   ooo ooooooooooooooo",
"ooooooooooooooooo   ooo .. . . . ..    oo ooooo  ooooooooooooooo",
"ooooooooooooooooo    o  . . . . . .   oo   ooo  oooooooooooooooo",
"ooooooooooooooooo    o   ..    . .   oo    o   ooooooooooooooooo",
"oooooooooooooooooo   o                o   o   oooooooooooooooooo",
"ooooooooooooooooooooooo              o   ooooooooooooooooooooooo",
"oooooooooooooooooooo   o            o   oooooooooooooooooooooooo",
"ooooooooooooooooooooo  oooo        oo oooooooooooooooooooooooooo",
"ooooooooooooooooooooo    oooooooooo o oooooooooooooooooooooooooo",
"oooooooooooooooooooooo        oooo o  oooooooooooooooooooooooooo",
"oooooooooooooooooooooooo           ooooooooooooooooooooooooooooo",
"oooooooooooooooooooooooooo       ooooooooooooooooooooooooooooooo",
"oooooooooooooooooooooooooooooooooooooooooooooooooooooooooooooooo",
"oooooooooooooooooooooooooooooooooooooooooooooooooooooooooooooooo",
"oooooooooooooooooooooooooooooooooooooooooooooooooooooooooooooooo",
"oooooooooooooooooooooooooooooooooooooooooooooooooooooooooooooooo",
"oooooooooooooooooooooooooooooooooooooooooooooooooooooooooooooooo",
"oooooooooooooooooooooooooooooooooooooooooooooooooooooooooooooooo",
"oooooooooooooooooooooooooooooooooooooooooooooooooooooooooooooooo",
"oooooooooooooooooooooooooooooooooooooooooooooooooooooooooooooooo",
"oooooooooooooooooooooooooooooooooooooooooooooooooooooooooooooooo",
"oooooooooooooooooooooooooooooooooooooooooooooooooooooooooooooooo",
"oooooooooooooooooooooooooooooooooooooooooooooooooooooooooooooooo",
"oooooooooooooooooooooooooooooooooooooooooooooooooooooooooooooooo",
"oooooooooooooooooooooooooooooooooooooooooooooooooooooooooooooooo",
"oooooooooooooooooooooooooooooooooooooooooooooooooooooooooooooooo",
"oooooooooooooooooooooooooooooooooooooooooooooooooooooooooooooooo",
"oooooooooooooooooooooooooooooooooooooooooooooooooooooooooooooooo"
};
