/* XPM */
static char *_2134_3c1be83a531bccaa2624a8acaad183d6aa833170fda36cb2b19a29c12b43488a[] = {
/* columns rows colors chars-per-pixel */
"64 64 5 1 ",
"  c #A80000",
". c #FC5454",
"X c #FCFC54",
"o c gray99",
"O c None",
/* pixels */
"OOOOOOOOOOOOOOOOOOOOOOOOOOOOOOOOOOOOOOOOOOOOOOOOOOOOOOOOOOOOOOOO",
"OOOOOOOOOOOOOOOOOOOOOOOOOOOOOOOOOOOOOOOOOOOOOOOOOOOOOOOOOOOOOOOO",
"OOOOOOOOOOOOOOOOOOOOOOOOOOOOOOOOOOOOOOOOOOOOOOOOOOOOOOOOOOOOOOOO",
"OOOOOOOOOOOOOOOOOOOOOOOOOOOOOOOOOOOOOOOOOOOOOOOOOOOOOOOOOOOOOOOO",
"OOOOOOOOOOOOOOOOOOOOOOOOOOOOOOOOOOOOOOOOOOOOOOOOOOOOOOOOOOOOOOOO",
"OOOOOOOOOOOOOOOOOOOOOOOOOOOOOOOOOOOOOOOOOOOOOOOOOOOOOOOOOOOOOOOO",
"OOOOOOOOOOOOOOOOOOOOOOOOOOOOOOOOOOOOOOOOOOOOOOOOOOOOOOOOOOOOOOOO",
"OOOOOOOOOOOOOOOOOOOOOOOOOOOOOOOOOOOOOOOOOOOOOOOOOOOOOOOOOOOOOOOO",
"OOOOOOOOOOOOOOOOOOOOOOOOOOOOOOOOOOOOOOOOOOOOOOOOOOOOOOOOOOOOOOOO",
"OOOOOOOOOOOOOOOOOOOOOOOOOOOOOOOOOOOOOOOOOOOOOOOOOOOOOOOOOOOOOOOO",
"OOOOOOOOOOOOOOOOOOOOOOOOOOOOOOOOOOOOOOOOOOOOOOOOOOOOOOOOOOOOOOOO",
"OOOOOOOOOOOOOOOOOOOOOOOOOOOOOOOOOOOOOOOOOOOOOOOOOOOOOOOOOOOOOOOO",
"OOOOOOOOOOOOOOOOOOOOOOOOOOOOOOOOOOOOOOOOOOOOOOOOOOOOOOOOOOOOOOOO",
"OOOOOOOOOOOOOOOOOOOOOOOOOOOOOOOOOOOOOOOOOOOOOOOOOOOOOOOOOOOOOOOO",
"OOOOOOOOOOOOOOOOOOOOXOOOOOOOOOOOOOOOOOOOOOOOOOOOOOOOOOOOOOOOOOOO",
"OOOOOOOOOOOOOOOOOOOOOXXXXOOOOOOOOOOOOOXXOOOOOOOOOOOOOOOOOOOOOOOO",
"OOOOOOOOOOOOOOOOOOOOOOOOXXOOOO OX O XXOOXOOOOOOOOOOOOOOOOOOOOOOO",
"OOOOOOOOOOOOOOOOOOOOOOOOOOXO  O XO X.. OOOOOOOOOOOOOOOOOOOOOOOOO",
"OOOOOOOOOOOOOOOOOOOOOOOOOXX      X XXX  OOOOOOOOOOOOOOOOOOOOOOOO",
"OOOOOOOOOOOOOOOOOOOOOOOOOOXX      XX. X OOOXOOOOOOOOOOOOOOOOOOOO",
"OOOOOOOOOOOOOOOOOOOXOOOOOXX    . .XX.. .OOXOOXXOOOOOOOOOOOOOOOOO",
"OOOOOOOOOOOOOOOOOOOXO  OOX   X. . XXX.. OOX XXOXOOOOOOOOOOOOOOOO",
"OOOOOOOOOOOOOOOOOOOOXX XX X X.X. .o.  X  OX XOOOOOOOOOOOOOOOOOOO",
"OOOOOOOOOOOOOOOOOOOOOOXXOXX   . .XXXXX   O XXOOOOOOOOOOOOOOOOOOO",
"OOOOOOOOOOOOOOOOOOOO OOO  X ....XXoX.. X OOXX OOOOOOOOOOOOOOOOOO",
"OOOOOOOOOOOOOOOOOOO O    XXX..XX.XoXo.. OXXX   OOOOOOOOOOOOOOOOO",
"OOOOOOOOOOOOOOOOO O  X    oX ..XoXoooX  oXX    OOOOOOOOOOOOOOOOO",
"OOOOOOOOOOOOOOOOO   XX     Xo..XXoooXX ooX      OOOOOOOOOOOOOOOO",
"OOOOOOOOOOOOOOOO  XX   . X XoXX.oooXooooXX. .   OOOOOOOOOOOOOOOO",
"OOOOOOOOOOOOOOOOOX XX . X.X X.oXXoXX.ooX.. .    OOOOOOOOOOOOOOOO",
"OOOOOOOOOOOOOOOOXX  XXXX.XXXXXooooX..XXoXXXX.XX OOOOOOOOOOOOOOOO",
"OOOOOOOOOOOOOOOOO   X..oX.oooooooooXXoXoX..XX.  OOOOOOOOOOOOOOOO",
"OOOOOOOOOOOOOOOO      .ooXXooX.XoooooXoX.X. X . OOOOOOOOOOOOOOOO",
"OOOOOOOOOOOOOOOO O   . .X.ooX.X.oX.oo.X.X... X  OOOOOOOOOOOOOOOO",
"OOOOOOOOOOOOOOOOO     . .XXX..ooXoXXooXX.. ..   OOOOOOOOOOOOOOOO",
"OOOOOOOOOOOOOOOO O  XXX......XoX.oX.oXX.XXX ..O OOOOOOOOOOOOOOOO",
"OOOOOOOOOOOOOOOOO OX   X..XX.oo.XoX.XXo. XXXX  OOOOOOOOOOOOOOOOO",
"OOOOOOOOOOOOOOOOOO O  XXXooXXoX.Xo...X.X.X X XO OOOOOOOOOOOOOOOO",
"OOOOOOOOOOOOOOOOOOOOOX   XX..X...XX....X  XX O OOOOOOOOOOOOOOOOO",
"OOOOOOOOOOOOOOOOOOOOXO  XX ...X.XXo.   XX  XO OOOOOOOOOOOOOOOOOO",
"OOOOOOOOOOOOOOOOOOOOXOOXX  .X.. .XoX  . OO XXOXOOOOOOOOOOOOOOOOO",
"OOOOOOOOOOOOOOOOOOOXOOO X    ... .XX   XOOOOXXXOOOOOOOOOOOOOOOOO",
"OOOOOOOOOOOOOOOOOOOOOOOOXX    . . XX   OOOOOOOOOOOOOOOOOOOOOOOOO",
"OOOOOOOOOOOOOOOOOOOOOOOOOXX        X  O OOOOOOOOOOOOOOOOOOOOOOOO",
"OOOOOOOOOOOOOOOOOOOOOOOOXX         XX OOOOOOOOOOOOOOOOOOOOOOOOOO",
"OOOOOOOOOOOOOOOOOOOOOXXXOO O O O  OXXXOOOOOOOOOOOOOOOOOOOOOOOOOO",
"OOOOOOOOOOOOOOOOOOOOOOOOOOO O O OO O XXOOOOOOOOOOOOOOOOOOOOOOOOO",
"OOOOOOOOOOOOOOOOOOOOOOOOOOOOOOOOOOOOOOOOOOOOOOOOOOOOOOOOOOOOOOOO",
"OOOOOOOOOOOOOOOOOOOOOOOOOOOOOOOOOOOOOOOOOOOOOOOOOOOOOOOOOOOOOOOO",
"OOOOOOOOOOOOOOOOOOOOOOOOOOOOOOOOOOOOOOOOOOOOOOOOOOOOOOOOOOOOOOOO",
"OOOOOOOOOOOOOOOOOOOOOOOOOOOOOOOOOOOOOOOOOOOOOOOOOOOOOOOOOOOOOOOO",
"OOOOOOOOOOOOOOOOOOOOOOOOOOOOOOOOOOOOOOOOOOOOOOOOOOOOOOOOOOOOOOOO",
"OOOOOOOOOOOOOOOOOOOOOOOOOOOOOOOOOOOOOOOOOOOOOOOOOOOOOOOOOOOOOOOO",
"OOOOOOOOOOOOOOOOOOOOOOOOOOOOOOOOOOOOOOOOOOOOOOOOOOOOOOOOOOOOOOOO",
"OOOOOOOOOOOOOOOOOOOOOOOOOOOOOOOOOOOOOOOOOOOOOOOOOOOOOOOOOOOOOOOO",
"OOOOOOOOOOOOOOOOOOOOOOOOOOOOOOOOOOOOOOOOOOOOOOOOOOOOOOOOOOOOOOOO",
"OOOOOOOOOOOOOOOOOOOOOOOOOOOOOOOOOOOOOOOOOOOOOOOOOOOOOOOOOOOOOOOO",
"OOOOOOOOOOOOOOOOOOOOOOOOOOOOOOOOOOOOOOOOOOOOOOOOOOOOOOOOOOOOOOOO",
"OOOOOOOOOOOOOOOOOOOOOOOOOOOOOOOOOOOOOOOOOOOOOOOOOOOOOOOOOOOOOOOO",
"OOOOOOOOOOOOOOOOOOOOOOOOOOOOOOOOOOOOOOOOOOOOOOOOOOOOOOOOOOOOOOOO",
"OOOOOOOOOOOOOOOOOOOOOOOOOOOOOOOOOOOOOOOOOOOOOOOOOOOOOOOOOOOOOOOO",
"OOOOOOOOOOOOOOOOOOOOOOOOOOOOOOOOOOOOOOOOOOOOOOOOOOOOOOOOOOOOOOOO",
"OOOOOOOOOOOOOOOOOOOOOOOOOOOOOOOOOOOOOOOOOOOOOOOOOOOOOOOOOOOOOOOO",
"OOOOOOOOOOOOOOOOOOOOOOOOOOOOOOOOOOOOOOOOOOOOOOOOOOOOOOOOOOOOOOOO"
};
