/* XPM */
static char *_7465_a17d0e4e421859280860be96ee359db2993675b44cf5912eb067a1884e704863[] = {
/* columns rows colors chars-per-pixel */
"64 64 4 1 ",
"  c #A80000",
". c #FC5454",
"X c #FCFC54",
"o c None",
/* pixels */
"oooooooooooooooooooooooooooooooooooooooooooooooooooooooooooooooo",
"oooooooooooooooooooooooooooooooooooooooooooooooooooooooooooooooo",
"oooooooooooooooooooooooooooooooooooooooooooooooooooooooooooooooo",
"oooooooooooooooooooooooooooooooooooooooooooooooooooooooooooooooo",
"oooooooooooooooooooooooooooooooooooooooooooooooooooooooooooooooo",
"oooooooooooooooooooooooooooooooooooooooooooooooooooooooooooooooo",
"oooooooooooooooooooooooooooooooooooooooooooooooooooooooooooooooo",
"oooooooooooooooooooooooooooooooooooooooooooooooooooooooooooooooo",
"oooooooooooooooooooooooooooooooooooooooooooooooooooooooooooooooo",
"oooooooooooooooooooooooooooooooooooooooooooooooooooooooooooooooo",
"oooooooooooooooooooooooooooooooooooooooooooooooooooooooooooooooo",
"oooooooooooooooooooooooooooooooooooooooooooooooooooooooooooooooo",
"ooooooooooooooooooooooooooooo oo o ooooooooooooooooooooooooooooo",
"ooooooooooooooooooooooooooo  o  o  .. oooooooooooooooooooooooooo",
"oooooooooooooooooooooooooo         .   ooooooooooooooooooooooooo",
"ooooooooooooooooooooooooo         ..   ooooooooooooooooooooooooo",
"oooooooooooooooooooooooo o    . . X.. .ooooooooooooooooooooooooo",
"oooooooooooooooooooo  ooo   X. . .XX.. oo   oooooooooooooooooooo",
"oooooooooooooooooooo  Xo   X.X. . .     oX  oooooooooooooooooooo",
"oooooooooooooooooooooXXoo    . ... ..   o Xooooooooooooooooooooo",
"ooooooooooooooooooo ooo    ....X..X..   oo   ooooooooooooooooooo",
"oooooooooooooooooo o    X  ..XX.XX.X.. o      oooooooooooooooooo",
"oooooooooooooooo o  X    XX ..XXXXXXX   X     oooooooooooooooooo",
"oooooooooooooooo   XX     XX..XXXXXXX  X       ooooooooooooooooo",
"ooooooooooooooo       . X XXXX.XXXXXXXXXX. .   ooooooooooooooooo",
"oooooooooooooooo     . X.X X.XXXXXX.XXX.. .    ooooooooooooooooo",
"ooooooooooooooo    XX X.XXXXXXXXXX..XXXXXXX.   ooooooooooooooooo",
"oooooooooooooooo   X.. X.XXXXXXXXXXXXXXX..XX.  ooooooooooooooooo",
"ooooooooooooooo      .XXXXXXX.XXXXXXXXX.X. X . ooooooooooooooooo",
"ooooooooooooooo o   . .X.XXX.X.XX.XX.X.X...    ooooooooooooooooo",
"oooooooooooooooo     . .XXX..XXXXXXXXXX.. ..   ooooooooooooooooo",
"ooooooooooooooo o    X......XXX.XX.XXX.X X ..o ooooooooooooooooo",
"oooooooooooooooo o    X...X.XX.XXX.XXX. XX.   oooooooooooooooooo",
"ooooooooooooooooo o      ..XXX.XX...X.X..    o ooooooooooooooooo",
"ooooooooooooooooooooo    ...X...X.....X  .  o oooooooooooooooooo",
"ooooooooooooooooooooo   . ...X.X...   XX   o ooooooooooooooooooo",
"oooooooooooooooooooooo    .... ..    . oo o oooooooooooooooooooo",
"oooooooooooooooooooooo      ... . .   Xooooooooooooooooooooooooo",
"ooooooooooooooooooooooo o    . . .    oooooooooooooooooooooooooo",
"oooooooooooooooooooooooo             o ooooooooooooooooooooooooo",
"oooooooooooooooooooooooo o        o  ooooooooooooooooooooooooooo",
"ooooooooooooooooooooooooo o o o  o ooooooooooooooooooooooooooooo",
"oooooooooooooooooooooooooo o o oo o oooooooooooooooooooooooooooo",
"oooooooooooooooooooooooooooooooooooooooooooooooooooooooooooooooo",
"oooooooooooooooooooooooooooooooooooooooooooooooooooooooooooooooo",
"oooooooooooooooooooooooooooooooooooooooooooooooooooooooooooooooo",
"oooooooooooooooooooooooooooooooooooooooooooooooooooooooooooooooo",
"oooooooooooooooooooooooooooooooooooooooooooooooooooooooooooooooo",
"oooooooooooooooooooooooooooooooooooooooooooooooooooooooooooooooo",
"oooooooooooooooooooooooooooooooooooooooooooooooooooooooooooooooo",
"oooooooooooooooooooooooooooooooooooooooooooooooooooooooooooooooo",
"oooooooooooooooooooooooooooooooooooooooooooooooooooooooooooooooo",
"oooooooooooooooooooooooooooooooooooooooooooooooooooooooooooooooo",
"oooooooooooooooooooooooooooooooooooooooooooooooooooooooooooooooo",
"oooooooooooooooooooooooooooooooooooooooooooooooooooooooooooooooo",
"oooooooooooooooooooooooooooooooooooooooooooooooooooooooooooooooo",
"oooooooooooooooooooooooooooooooooooooooooooooooooooooooooooooooo",
"oooooooooooooooooooooooooooooooooooooooooooooooooooooooooooooooo",
"oooooooooooooooooooooooooooooooooooooooooooooooooooooooooooooooo",
"oooooooooooooooooooooooooooooooooooooooooooooooooooooooooooooooo",
"oooooooooooooooooooooooooooooooooooooooooooooooooooooooooooooooo",
"oooooooooooooooooooooooooooooooooooooooooooooooooooooooooooooooo",
"oooooooooooooooooooooooooooooooooooooooooooooooooooooooooooooooo",
"oooooooooooooooooooooooooooooooooooooooooooooooooooooooooooooooo"
};
