/* XPM */
static char *_0368_b3c447d9e4bebcb8ae1b118fc3cc46f2d2ec9f2a8a105c419179b3db20a9beae[] = {
/* columns rows colors chars-per-pixel */
"40 40 4 1 ",
"  c #A80000",
". c #FC5454",
"X c #FCFC54",
"o c None",
/* pixels */
"oooooooooooooooooooooooooooooooooooooooo",
"oooooooooooooooooooooooooooooooooooooooo",
"oooooooooooooooooooooooooooooooooooooooo",
"oooooooooooooooooooooooooooooooooooooooo",
"oooooooooooooooooooooooooooooooooooooooo",
"oooooooooooooooooo oo o oooooooooooooooo",
"oooooooooooooooo  o  o  .. ooooooooooooo",
"ooooooooooooooo         .   oooooooooooo",
"oooooooooooooo         ..   oooooooooooo",
"ooooooooooooo o    . . X.. .oooooooooooo",
"ooooooooo  ooo   X. . .XX.. oo   ooooooo",
"ooooooooo  Xo   X.X. . .     oX  ooooooo",
"ooooooooooXXoo    . ... ..   o Xoooooooo",
"oooooooo ooo    ....X..X..   oo   oooooo",
"ooooooo o    X  ..XX.XX.X.. o      ooooo",
"ooooo o  X    XX ..XXXXXXX   X     ooooo",
"ooooo   XX     XX..XXXXXXX  X       oooo",
"oooo       . X XXXX.XXXXXXXXXX. .   oooo",
"ooooo     . X.X X.XXXXXX.XXX.. .    oooo",
"oooo    XX X.XXXXXXXXXX..XXXXXXX.   oooo",
"ooooo   X.. X.XXXXXXXXXXXXXXX..XX.  oooo",
"oooo      .XXXXXXX.XXXXXXXXX.X. X . oooo",
"oooo o   . .X.XXX.X.XX.XX.X.X...    oooo",
"ooooo     . .XXX..XXXXXXXXXX.. ..   oooo",
"oooo o    X......XXX.XX.XXX.X X ..o oooo",
"ooooo o    X...X.XX.XXX.XXX. XX.   ooooo",
"oooooo o      ..XXX.XX...X.X..    o oooo",
"oooooooooo    ...X...X.....X  .  o ooooo",
"oooooooooo   . ...X.X...   XX   o oooooo",
"ooooooooooo    .... ..    . oo o ooooooo",
"ooooooooooo      ... . .   Xoooooooooooo",
"oooooooooooo o    . . .    ooooooooooooo",
"ooooooooooooo             o oooooooooooo",
"ooooooooooooo o        o  oooooooooooooo",
"oooooooooooooo o o o  o oooooooooooooooo",
"ooooooooooooooo o o oo o ooooooooooooooo",
"oooooooooooooooooooooooooooooooooooooooo",
"oooooooooooooooooooooooooooooooooooooooo",
"oooooooooooooooooooooooooooooooooooooooo",
"oooooooooooooooooooooooooooooooooooooooo"
};
